<?xml version="1.0" standalone="no"?>
<!DOCTYPE svg PUBLIC "-//W3C//DTD SVG 20010904//EN"
 "http://www.w3.org/TR/2001/REC-SVG-20010904/DTD/svg10.dtd">
<svg version="1.0" xmlns="http://www.w3.org/2000/svg"
 width="672.000000pt" height="736.000000pt" viewBox="0 0 672.000000 736.000000"
 preserveAspectRatio="xMidYMid meet">

<g transform="translate(0.000000,736.000000) scale(0.100000,-0.100000)"
fill="#000000" stroke="none">
<path d="M1 7248 c1 -117 15 -119 19 -3 l3 60 7 -74 c5 -58 11 -78 28 -91 12
-10 20 -19 19 -21 -1 -3 4 2 11 10 6 8 12 10 12 4 0 -6 7 -13 15 -16 12 -5 12
-2 3 21 -16 37 -18 38 -28 22 -8 -12 -10 -10 -10 8 0 12 -4 22 -10 22 -6 0 -9
21 -8 48 l1 47 4 -42 c4 -42 25 -59 36 -30 2 7 16 13 30 15 24 1 96 38 107 53
3 4 21 9 40 11 19 1 38 8 42 13 4 6 8 2 8 -7 0 -10 5 -18 10 -18 6 0 10 18 10
40 l0 40 -175 0 -175 0 1 -112z"/>
<path d="M3688 7353 c7 -3 16 -2 19 1 4 3 -2 6 -13 5 -11 0 -14 -3 -6 -6z"/>
<path d="M3920 7350 c0 -5 7 -7 15 -4 8 4 15 8 15 10 0 2 -7 4 -15 4 -8 0 -15
-4 -15 -10z"/>
<path d="M3961 7343 c-9 -4 5 -15 35 -30 47 -23 48 -23 14 -18 -19 2 -55 9
-80 15 -25 5 -101 12 -170 16 -141 8 -181 0 -233 -46 -18 -15 -41 -32 -52 -38
-26 -13 -156 -32 -220 -32 -118 1 -213 -11 -219 -27 -9 -23 0 -27 31 -15 15 6
56 12 91 15 60 3 63 2 58 -17 -3 -11 -1 -25 5 -32 13 -16 7 -19 -93 -54 -44
-16 -84 -34 -88 -40 -5 -8 -13 -9 -21 -4 -8 5 -24 7 -36 5 -16 -1 -23 3 -23
13 0 16 -10 20 -42 17 -10 -1 -18 1 -18 6 0 10 75 63 89 63 6 0 11 9 11 20 0
17 -4 19 -27 14 -35 -9 -130 -55 -177 -88 -20 -13 -41 -26 -47 -28 -5 -2 -18
-37 -28 -79 -27 -110 -43 -151 -54 -136 -5 7 -6 2 -3 -15 3 -15 3 -29 -2 -32
-10 -6 -13 21 -14 121 0 81 0 82 -29 92 -28 10 -30 8 -50 -32 -51 -103 -228
-222 -319 -215 -98 7 -69 62 77 144 86 48 107 69 83 84 -11 7 -9 20 8 67 11
32 23 78 27 102 5 38 4 42 -9 32 -13 -11 -15 -8 -13 16 2 22 -2 27 -17 25 -11
-2 -15 1 -11 7 6 10 -16 16 -40 11 -5 -1 -37 -6 -69 -11 -63 -11 -99 -25 -92
-38 3 -4 -5 -13 -16 -20 -18 -11 -20 -11 -15 4 4 9 3 14 -2 10 -5 -3 -12 1
-14 7 -8 18 -27 -11 -25 -37 1 -17 1 -17 5 3 5 27 23 29 23 3 0 -11 5 -23 10
-26 6 -3 10 -13 10 -21 0 -8 -4 -14 -10 -14 -5 0 -10 7 -10 15 0 8 -5 15 -11
15 -7 0 -9 -9 -5 -22 4 -13 10 -43 13 -68 6 -50 27 -80 55 -80 10 0 18 -5 18
-11 0 -6 -17 -9 -42 -7 -42 3 -42 3 -55 -42 -15 -51 -35 -75 -57 -67 -14 6
-56 84 -56 105 0 5 -7 15 -15 22 -10 9 -15 9 -15 1 0 -6 -4 -11 -10 -11 -5 0
-23 -14 -40 -30 -30 -29 -32 -50 -6 -50 20 0 42 -48 28 -62 -9 -9 -16 -8 -29
4 -25 21 -81 39 -88 27 -4 -5 -3 -9 1 -9 3 0 1 -7 -6 -15 -7 -9 -11 -39 -9
-82 2 -37 -1 -74 -5 -82 -5 -8 -10 -35 -11 -61 -3 -51 -26 -104 -49 -113 -45
-17 -91 38 -102 123 -5 41 -9 48 -20 39 -16 -13 -18 -1 -5 20 6 9 4 22 -4 35
-12 17 -14 61 -5 86 2 3 2 8 1 13 0 4 4 7 10 7 6 0 7 5 2 13 -4 6 -8 18 -8 26
-1 51 -55 -14 -55 -66 0 -13 -6 -26 -14 -29 -8 -3 -14 -21 -14 -47 -1 -93 -21
-275 -36 -329 -16 -60 -59 -166 -78 -198 -7 -10 -18 -16 -25 -13 -15 6 -16 0
-5 -25 27 -54 51 -147 41 -156 -7 -8 -15 -5 -25 8 -8 11 -14 16 -14 12 0 -12
-23 15 -58 69 -40 61 -72 159 -79 244 -6 68 1 81 45 81 23 0 23 1 17 93 -9
135 -15 178 -26 172 -5 -4 -9 3 -9 14 0 11 -10 26 -22 32 -13 7 -32 22 -43 34
-18 19 -55 40 -55 31 0 -2 18 -26 40 -52 22 -27 40 -52 40 -56 0 -4 -11 -10
-24 -14 -20 -5 -30 -20 -50 -72 -33 -90 -58 -177 -61 -215 -2 -18 -3 -33 -4
-35 -1 -1 -13 5 -27 15 -24 15 -26 21 -20 61 3 25 11 51 17 58 6 8 9 14 5 14
-4 0 1 14 9 31 9 17 14 33 11 36 -3 3 1 12 9 20 8 8 15 24 15 36 0 14 -3 18
-8 10 -6 -9 -16 -9 -45 1 -20 7 -35 16 -32 19 3 4 -1 3 -7 -3 -7 -5 -27 -10
-45 -10 -38 0 -41 -11 -12 -51 19 -28 20 -34 9 -97 -10 -59 -29 -341 -30 -444
0 -22 -5 -38 -12 -38 -6 0 -8 3 -5 7 4 3 3 11 -2 17 -5 6 -17 37 -26 69 -14
49 -19 56 -32 46 -8 -7 -12 -21 -10 -31 3 -10 1 -20 -3 -23 -5 -3 -14 -37 -20
-75 -6 -38 -16 -73 -22 -76 -7 -5 -9 5 -4 27 3 19 8 45 10 59 2 14 11 49 20
79 8 30 13 58 10 62 -2 4 1 9 7 11 8 3 15 50 20 129 8 115 18 170 40 227 15
37 10 46 -10 21 l-20 -24 6 24 c5 20 3 23 -10 18 -12 -4 -21 2 -32 23 -8 16
-15 36 -15 44 0 8 -5 16 -12 18 -9 3 -9 6 0 12 7 4 12 2 12 -3 0 -6 5 -11 11
-11 5 0 8 4 5 9 -6 9 63 41 89 41 20 0 125 47 126 57 0 4 2 19 4 33 2 14 -3
40 -11 58 -22 47 -71 45 -131 -4 -37 -30 -47 -34 -55 -23 -8 11 -9 11 -5 -2 3
-10 -6 -28 -23 -44 -16 -15 -32 -41 -35 -56 -6 -27 -35 -42 -35 -18 0 5 5 7
11 3 7 -4 10 -1 7 7 -5 16 -105 22 -114 7 -3 -4 2 -8 10 -8 18 0 22 -25 6 -35
-16 -10 -12 -45 4 -39 18 7 46 -65 45 -114 -1 -23 -3 -29 -6 -14 -8 42 -20 22
-20 -36 0 -54 2 -60 28 -71 54 -24 44 -75 -25 -121 -32 -22 -35 -29 -30 -55
13 -60 24 -60 90 1 l49 46 3 -41 c6 -79 -65 -164 -202 -243 -36 -20 -80 -42
-99 -49 -32 -11 -46 -34 -95 -151 -2 -4 21 -8 51 -8 38 0 57 -4 60 -14 6 -14
-31 -26 -81 -26 -24 0 -25 -1 -7 -20 10 -11 15 -20 10 -20 -4 0 -2 -6 4 -13 6
-8 8 -17 4 -20 -17 -18 22 0 127 56 l115 62 6 85 c5 70 21 141 35 158 5 8 44
-20 44 -31 0 -8 -4 -7 -10 3 -6 9 -7 -4 -3 -40 3 -30 6 -74 7 -97 1 -45 9 -58
33 -58 9 0 20 -7 26 -16 19 -30 -17 -66 -111 -113 -96 -47 -149 -78 -262 -151
-85 -54 -167 -95 -192 -95 -33 0 -20 45 25 96 41 46 58 88 32 78 -11 -5 -27
35 -39 96 -3 14 -23 39 -45 55 -22 17 -41 35 -41 40 0 6 -10 16 -21 23 -19 12
-21 20 -16 88 3 41 1 77 -4 80 -5 3 -9 21 -9 39 0 38 13 49 73 60 21 4 37 13
37 21 0 30 21 21 50 -22 23 -32 31 -54 28 -74 -4 -27 -1 -29 41 -40 36 -9 46
-9 50 1 7 21 43 51 122 101 116 75 111 68 96 119 -13 44 -13 44 -67 51 -39 5
-66 3 -92 -7 -92 -36 -472 -111 -510 -102 -17 5 -18 -8 -18 -279 l0 -284 28 0
c41 0 60 19 79 79 19 58 36 74 47 44 13 -33 16 -184 5 -205 -10 -19 -9 -20 13
-16 24 4 25 2 27 -46 1 -28 15 -111 30 -185 29 -137 30 -164 5 -154 -8 3 -11
9 -8 14 3 5 -2 6 -10 3 -9 -3 -16 -2 -16 3 0 5 -9 19 -21 31 -49 53 -99 237
-99 363 0 40 -1 41 -27 35 -16 -4 -34 -7 -40 -8 -10 -1 -13 -203 -13 -975 0
-920 1 -973 18 -973 10 0 25 -16 35 -37 l19 -37 -29 -23 c-25 -21 -28 -21 -35
-5 -4 9 -7 -29 -7 -85 -1 -103 -1 -103 24 -103 13 0 35 -5 49 -12 23 -10 29
-8 56 23 16 19 30 28 30 22 0 -7 -4 -13 -10 -13 -5 0 -15 -18 -21 -40 -15 -49
-82 -114 -110 -107 -18 5 -19 -4 -19 -236 0 -187 3 -238 12 -229 7 7 22 12 34
12 13 0 24 8 26 18 4 14 18 20 58 25 29 4 58 11 65 17 15 12 105 26 105 15 0
-15 -45 -81 -96 -142 -28 -34 -53 -66 -55 -71 -2 -5 -31 -21 -64 -37 -33 -15
-55 -30 -49 -32 17 -6 195 84 227 115 36 34 87 137 87 174 0 33 14 65 41 90
10 10 23 26 28 35 9 16 12 16 21 3 9 -12 10 -10 5 8 -4 15 -1 24 9 28 9 3 13
10 10 15 -3 5 2 6 10 3 10 -4 16 -1 16 7 0 7 2 10 5 7 10 -10 -7 -58 -17 -52
-6 4 -8 -2 -3 -15 5 -15 2 -21 -9 -21 -20 0 -20 -10 1 -39 9 -14 12 -21 6 -18
-6 4 -21 -5 -33 -20 -13 -16 -17 -29 -11 -31 6 -2 9 -8 5 -13 -8 -14 20 -11
35 3 11 11 13 10 9 -2 -5 -13 10 -15 98 -15 57 0 104 3 104 8 0 4 7 7 16 7 11
0 14 -6 9 -22 -6 -16 -4 -20 7 -16 8 3 23 -1 33 -9 19 -14 19 -15 -5 -8 -22 7
-24 6 -11 -9 8 -9 20 -15 28 -12 22 9 43 -5 43 -29 0 -51 130 -106 213 -89 31
6 38 40 10 47 -17 4 -17 5 0 6 9 0 17 7 17 14 0 9 3 8 9 -2 12 -19 77 -6 86
17 6 16 7 16 16 0 6 -10 20 -18 32 -17 12 0 16 3 10 6 -7 2 -13 11 -13 19 0 8
-7 17 -15 20 -8 4 -15 12 -15 20 0 8 -4 14 -10 14 -13 0 -13 37 1 46 6 3 8 16
5 28 -5 22 19 64 31 53 4 -4 1 -13 -5 -19 -17 -17 -15 -38 3 -38 9 0 17 -14
21 -39 6 -38 7 -39 39 -34 18 3 35 1 38 -4 4 -6 -4 -8 -20 -5 -19 4 -24 1 -21
-9 6 -18 74 -19 71 -1 -2 6 4 12 12 12 8 0 15 -7 15 -15 0 -8 7 -15 15 -15 8
0 15 -4 15 -8 0 -5 -15 -7 -32 -5 l-33 3 28 -9 c37 -12 57 -30 57 -50 0 -9 7
-25 15 -35 15 -20 15 -20 30 0 8 10 13 29 10 42 -4 15 -2 21 5 17 6 -3 10 4
10 17 1 33 25 119 33 118 4 0 11 0 16 0 22 0 41 -145 42 -327 1 -78 4 -103 14
-103 7 0 15 -7 18 -14 4 -10 1 -13 -7 -10 -8 3 -17 0 -22 -7 -4 -8 -3 -10 4
-5 7 4 19 3 28 -2 14 -8 13 -12 -9 -38 -29 -36 -82 -147 -92 -194 -12 -59 18
-16 49 70 15 41 38 91 51 111 17 26 22 46 19 75 -2 21 -1 32 3 24 5 -10 11 -2
19 25 7 22 13 33 13 24 1 -9 -6 -35 -14 -58 -8 -22 -10 -41 -5 -41 6 0 10 6
10 13 0 6 5 4 11 -5 12 -22 29 -23 29 -4 0 8 4 18 10 21 6 4 7 -1 3 -11 -4
-12 -3 -15 5 -10 7 4 12 16 12 26 0 10 4 21 9 24 4 3 6 28 3 55 -3 34 2 66 16
105 15 42 17 54 6 45 -8 -6 -14 -22 -14 -35 0 -13 -5 -24 -11 -24 -11 0 -3 38
12 54 4 5 6 23 4 40 -4 28 -4 29 4 6 8 -23 9 -22 10 12 1 20 4 44 8 54 4 12 3
15 -5 10 -9 -5 -10 2 -4 26 4 18 7 66 7 106 0 71 0 73 22 67 20 -5 23 -1 23
23 0 15 -9 35 -19 44 -16 13 -19 25 -14 54 9 52 44 86 95 91 52 5 63 13 20 13
-22 0 -32 5 -32 16 0 11 -6 14 -22 8 -21 -6 -22 -5 -8 11 11 14 12 19 3 22
-20 7 -16 17 20 55 62 68 86 99 90 116 4 15 5 14 6 -2 1 -15 4 -16 15 -7 12
10 18 8 30 -11 14 -22 14 -32 1 -99 -10 -54 -12 -90 -5 -134 5 -33 14 -112 20
-175 17 -180 44 -255 54 -154 4 33 11 82 16 109 5 28 13 74 16 104 8 64 50
140 76 138 20 -1 18 -18 -8 -71 -8 -16 -14 -34 -14 -40 0 -6 14 16 30 49 l29
60 0 -50 c2 -92 23 -128 34 -57 4 20 16 80 27 132 12 52 25 113 29 135 5 22 9
31 10 20 1 -11 9 3 18 30 8 28 21 62 29 77 8 14 14 53 14 86 0 34 5 64 10 67
6 3 10 13 10 21 0 9 25 57 55 108 30 50 55 97 55 104 0 7 5 12 10 12 6 0 10 6
10 13 0 7 9 33 21 56 11 24 23 58 26 77 6 35 19 50 71 80 39 22 46 15 56 -52
3 -25 13 -59 22 -76 12 -22 13 -33 5 -36 -6 -2 -11 -26 -11 -58 l0 -54 60 0
c34 0 60 4 60 10 0 12 42 4 83 -17 29 -14 37 -43 12 -43 -8 0 -15 -5 -15 -11
0 -7 12 -9 35 -5 37 7 80 -8 69 -25 -3 -5 -14 -7 -23 -4 -24 7 -48 -3 -56 -22
-8 -22 41 -72 64 -66 10 2 23 -3 30 -11 8 -9 24 -16 36 -16 13 0 38 -8 57 -18
18 -9 35 -18 36 -19 8 -4 -10 -43 -20 -43 -5 0 -19 -11 -30 -25 -22 -28 -38
-32 -38 -10 0 9 -9 15 -21 15 -12 0 -23 8 -26 20 -4 14 -14 20 -34 20 -16 0
-29 -4 -29 -10 0 -5 -10 -10 -21 -10 -17 0 -20 -4 -15 -22 4 -13 9 -35 12 -50
7 -30 19 -36 28 -15 3 6 4 -1 1 -16 -5 -23 -2 -30 14 -34 12 -3 30 -21 42 -39
13 -21 29 -34 41 -34 28 0 47 -28 48 -67 0 -50 -17 -76 -71 -107 -49 -27 -50
-29 -33 -47 9 -11 34 -24 54 -30 33 -10 42 -9 82 15 25 14 53 26 62 26 10 0
24 7 33 15 21 22 80 14 99 -13 11 -16 13 -37 8 -89 -4 -37 -10 -75 -14 -83 -5
-8 -38 -45 -74 -81 -43 -43 -68 -76 -72 -97 -5 -23 -14 -34 -30 -38 -27 -7
-32 -29 -8 -38 8 -3 13 -2 10 3 -8 13 19 21 70 21 27 0 109 21 208 54 145 48
176 62 263 121 54 37 114 82 135 100 62 57 106 68 129 34 8 -10 9 -9 4 7 -6
23 20 58 36 49 16 -10 10 -28 -32 -95 -47 -73 -69 -130 -68 -169 1 -19 6 -11
19 29 9 30 19 55 21 54 2 0 12 -5 23 -11 15 -8 16 -13 5 -30 -7 -12 -19 -19
-26 -16 -7 3 -14 -1 -14 -8 -4 -44 -26 -93 -49 -107 -17 -11 -20 -10 -20 8 0
10 -10 25 -22 31 -18 10 -24 8 -40 -11 -26 -32 -23 -64 8 -79 22 -10 30 -9 45
5 22 20 36 13 17 -7 -17 -19 -23 -79 -7 -79 6 0 18 8 25 18 12 16 13 15 8 -4
-4 -16 0 -23 15 -27 22 -5 28 -31 11 -42 -6 -3 -10 3 -10 14 0 12 -5 21 -10
21 -7 0 -9 -13 -5 -32 3 -18 1 -46 -4 -63 -10 -28 -10 -26 -8 17 2 48 -9 63
-27 35 -6 -10 -5 -39 3 -84 15 -83 25 -103 43 -85 18 18 27 15 21 -11 -4 -20
-3 -21 7 -3 8 11 10 33 5 60 -15 84 -14 105 1 99 14 -5 14 14 -1 64 -2 6 1 13
6 15 6 2 15 19 20 38 8 32 8 31 4 -12 -3 -30 -1 -48 6 -48 6 0 7 5 3 12 -4 7
-3 8 4 4 19 -12 14 -36 -8 -36 -11 0 -20 -4 -20 -10 0 -5 6 -7 14 -4 11 4 24
-11 31 -36 9 -37 30 -88 41 -101 12 -14 9 -23 -25 -70 -21 -30 -57 -73 -79
-96 -22 -23 -50 -59 -63 -82 -13 -22 -41 -67 -62 -100 -37 -58 -38 -62 -24
-90 9 -17 12 -41 9 -58 -6 -27 -7 -26 -12 12 l-6 40 -13 -30 c-8 -18 -15 -25
-18 -17 -4 10 -8 10 -19 1 -8 -6 -11 -16 -7 -22 3 -5 1 -7 -4 -4 -6 4 -16 0
-22 -7 -8 -9 -8 -17 -2 -20 5 -3 12 0 15 6 3 7 3 2 0 -12 -8 -33 -13 -37 -23
-21 -6 9 -11 10 -15 2 -4 -6 -2 -11 3 -11 6 0 11 -6 11 -14 0 -16 -27 -29 -41
-20 -5 3 -9 -2 -9 -10 0 -9 -5 -16 -10 -16 -7 0 -7 -7 0 -21 6 -11 9 -28 7
-37 -4 -15 -5 -15 -6 1 0 10 -7 24 -14 32 -11 11 -22 4 -62 -40 -53 -59 -74
-72 -86 -53 -10 16 -42 -12 -75 -64 -30 -47 -30 -60 1 -94 27 -29 32 -26 14 8
-8 15 -8 19 0 14 6 -4 11 -2 11 4 0 6 5 8 10 5 6 -3 10 -1 10 6 0 7 2 10 5 7
7 -7 -25 -88 -33 -86 -22 2 -42 -4 -42 -13 0 -6 9 -9 20 -6 11 3 20 3 20 1 0
-14 -43 -97 -58 -112 -23 -24 -28 -78 -7 -86 10 -3 14 -2 10 5 -4 5 -2 15 3
22 5 7 20 37 33 67 37 87 60 124 70 108 7 -10 9 -10 9 0 0 9 6 9 24 -3 24 -16
70 -26 141 -30 85 -4 86 -5 79 -17 -3 -7 5 0 20 16 14 16 26 23 26 16 0 -9 4
-9 13 -2 7 6 31 7 65 2 38 -7 59 -5 78 5 21 11 30 11 52 -1 34 -17 72 -18 72
-1 0 7 10 17 23 22 12 6 21 17 19 24 -2 10 4 12 23 7 27 -7 65 8 65 25 0 6 -7
6 -19 -1 -25 -13 -41 -13 -41 1 0 6 9 13 20 16 28 7 25 39 -6 76 -15 18 -22
33 -15 35 6 2 11 21 11 43 0 35 3 39 25 39 15 0 25 6 25 15 0 7 6 18 13 22 7
4 19 27 27 51 9 29 18 41 29 40 10 -2 16 4 16 17 0 15 -8 21 -30 23 -16 2 -33
8 -36 13 -3 6 -15 6 -29 1 -23 -9 -23 -9 8 -15 30 -6 32 -10 32 -47 0 -22 -4
-40 -10 -40 -5 0 -10 18 -10 40 0 36 -2 40 -25 40 -14 0 -28 0 -32 0 -5 0 -9
-4 -9 -10 -1 -5 -2 -14 -3 -20 0 -5 -9 -10 -18 -9 -11 0 -13 3 -5 6 17 7 15
23 -3 23 -8 0 -15 4 -15 10 0 6 -10 5 -25 -2 -14 -6 -24 -18 -23 -26 2 -11
-12 -20 -42 -30 -48 -15 -150 -24 -128 -11 8 5 4 11 -14 19 -23 11 -26 18 -26
64 1 31 3 43 8 32 5 -16 8 -17 15 -6 5 9 4 15 -3 18 -7 2 -12 12 -12 22 0 10
-7 26 -15 34 -13 12 -14 20 -5 36 6 12 16 18 23 14 7 -4 9 -4 5 1 -4 4 -3 16
2 26 10 17 30 18 80 4 22 -6 52 39 42 64 -7 19 -9 19 -51 -14 -24 -20 -46 -33
-48 -31 -3 2 11 27 29 55 30 44 35 48 46 33 10 -14 11 -13 6 10 -5 21 1 33 23
55 15 15 44 48 63 73 19 25 40 51 47 58 17 17 16 22 -2 42 -14 15 -14 18 0 30
14 12 20 10 39 -13 13 -15 26 -24 30 -20 3 3 6 2 6 -4 0 -5 -3 -13 -7 -17 -14
-14 -11 -35 4 -29 11 4 11 8 3 13 -9 5 -9 9 -1 14 15 9 51 -11 51 -29 0 -8 5
-15 10 -15 6 0 10 -6 10 -14 0 -17 35 -30 51 -20 7 4 18 -1 25 -11 8 -10 16
-16 19 -13 7 7 -13 53 -42 96 -46 69 -105 262 -116 382 -5 52 -5 54 8 25 7
-16 34 -95 58 -175 39 -123 96 -291 122 -352 11 -28 207 -188 230 -188 4 0 14
8 21 17 9 14 10 21 1 32 -10 12 -9 13 2 6 9 -5 12 -4 7 3 -3 6 -41 34 -84 63
-82 56 -120 91 -103 97 21 7 183 -89 253 -150 40 -35 84 -72 98 -84 14 -11 41
-38 60 -60 31 -34 31 -36 5 -13 -16 14 -38 29 -48 32 -22 8 -14 -7 45 -82 30
-37 64 -65 110 -90 37 -20 88 -56 115 -79 41 -36 182 -112 313 -169 94 -40
223 -124 234 -151 3 -7 1 -10 -4 -7 -6 3 -10 1 -10 -4 0 -6 -13 -11 -30 -11
-16 0 -30 -3 -30 -7 0 -10 106 -79 189 -123 85 -45 105 -80 127 -225 17 -116
33 -156 35 -89 1 34 2 36 9 14 4 -14 8 -19 9 -11 2 23 30 -20 30 -44 0 -17 -2
-16 -11 5 -9 21 -12 22 -15 7 -3 -10 0 -24 6 -31 9 -11 6 -21 -13 -43 l-24
-29 29 -139 c16 -77 28 -158 26 -180 -2 -22 -2 -31 1 -20 3 15 9 7 21 -29 l17
-50 -53 -155 c-29 -85 -53 -156 -53 -158 0 -2 94 -3 209 -3 209 0 210 0 214
23 l4 22 2 -22 1 -23 242 0 241 0 -6 322 c-4 177 -9 323 -11 325 -4 5 -56 -17
-76 -32 -34 -26 -220 -78 -220 -62 0 9 123 69 171 83 26 8 60 21 76 29 15 8
34 15 41 15 7 0 12 14 13 33 7 204 7 292 0 297 -15 8 -17 45 -3 43 6 -2 12 1
12 6 0 5 -10 12 -22 14 l-23 4 23 2 c21 1 22 4 22 101 0 60 -4 100 -10 100 -5
0 -10 -5 -10 -11 0 -6 -9 -8 -20 -4 -14 4 -18 2 -15 -7 8 -22 -103 -81 -155
-82 -28 -1 -59 -11 -80 -25 -28 -18 -30 -21 -10 -16 22 6 23 6 8 -6 -18 -15
-42 -89 -28 -89 10 0 2 -35 -16 -68 -13 -25 -28 -15 -18 12 3 9 1 16 -5 16 -6
0 -11 -7 -11 -15 0 -21 -21 -42 -40 -40 -8 1 -9 0 -2 -2 6 -3 12 -10 12 -16 0
-6 7 -1 16 12 13 18 18 20 25 10 13 -21 11 -29 -6 -23 -18 7 -19 0 -3 -26 10
-16 10 -22 -1 -32 -12 -11 -13 -10 -8 5 4 9 2 17 -3 17 -6 0 -10 -8 -10 -18 0
-11 -10 -24 -22 -31 -13 -6 -15 -9 -5 -7 21 7 22 -7 1 -28 -8 -9 -12 -16 -7
-16 16 0 31 15 36 35 2 12 3 10 2 -5 -3 -26 -28 -102 -51 -155 -11 -26 -13
-27 -13 -8 -1 12 4 33 10 46 8 18 8 30 0 43 -9 17 -10 15 -11 -13 0 -44 -20
-42 -22 2 -1 19 -2 43 -2 53 -1 10 6 16 17 16 9 -1 17 2 17 7 0 5 -7 9 -16 9
-40 0 -63 99 -27 119 13 7 15 12 5 23 -7 9 -9 33 -5 66 5 45 4 52 -12 52 -14
0 -15 3 -6 14 13 16 15 43 7 146 -4 51 -3 68 3 54 27 -61 37 -23 20 80 -9 56
-9 70 2 77 26 17 39 9 61 -36 14 -29 27 -44 36 -40 7 3 10 0 7 -6 -4 -6 2 -8
18 -4 15 4 28 2 32 -6 6 -9 2 -11 -13 -7 -13 4 -20 2 -16 -3 3 -6 0 -16 -6
-24 -10 -12 -10 -18 0 -30 7 -8 18 -15 24 -15 6 0 4 5 -4 10 -12 8 -9 10 13
10 26 0 27 -1 13 -16 -22 -21 -20 -27 3 -14 25 13 34 13 25 -1 -10 -17 17 1
60 38 20 18 35 38 34 45 -2 7 2 12 9 11 7 -2 10 4 7 12 -4 8 -1 15 6 15 6 0 8
5 5 10 -7 11 32 49 51 50 6 0 32 -11 57 -24 l47 -23 -2 401 -3 401 -30 0 c-16
0 -34 5 -38 10 -5 6 -5 -1 -1 -15 9 -34 12 -46 7 -38 -3 5 -13 3 -24 -3 -20
-10 -23 -8 -32 36 -4 15 -5 13 -6 -7 0 -15 -5 -29 -10 -32 -4 -3 -11 -25 -14
-48 -4 -33 1 -59 24 -116 31 -78 37 -122 17 -122 -49 2 -133 154 -144 263 -7
69 -24 103 -24 48 0 -16 -4 -33 -10 -36 -5 -3 -10 -15 -10 -26 0 -11 -4 -18
-9 -15 -5 4 -11 3 -13 -2 -1 -4 -27 -23 -57 -41 -38 -23 -57 -29 -64 -22 -15
15 -27 14 -27 -3 0 -7 -11 -16 -25 -18 -14 -3 -25 -2 -25 1 0 9 32 55 44 63 6
4 1 8 -12 8 -17 0 -28 -11 -44 -45 -17 -34 -25 -42 -35 -33 -7 6 -13 17 -13
25 0 25 -40 73 -61 73 -10 0 -19 -7 -19 -15 0 -10 -11 -15 -35 -15 -30 0 -35
-4 -41 -27 -10 -48 -25 -81 -44 -98 -18 -16 -20 -16 -35 -1 -15 15 -15 21 0
83 9 36 22 74 28 84 9 14 8 21 -2 31 -11 11 -12 10 -6 -2 5 -8 -3 -5 -16 7
-13 12 -42 29 -64 38 -100 41 -96 38 -78 57 12 13 20 15 34 7 12 -6 19 -6 19
0 0 12 -37 24 -50 16 -7 -4 -7 2 0 19 6 17 6 27 -2 32 -6 4 -8 3 -4 -4 3 -6 2
-13 -4 -17 -5 -3 -10 -1 -10 4 0 6 -8 11 -17 12 -15 0 -15 2 2 8 19 8 19 8 -3
22 -23 14 -31 52 -9 44 17 -7 10 112 -8 138 -8 11 -11 25 -8 32 2 8 -2 24 -10
37 -9 13 -19 49 -22 82 -5 40 -10 54 -17 45 -6 -9 -7 1 -3 27 4 27 2 44 -5 49
-7 5 -9 -1 -4 -19 8 -32 -4 -34 -15 -3 -8 21 -9 20 -15 -10 -6 -26 -13 -33
-32 -33 -18 0 -25 7 -30 28 -14 65 -20 67 -60 15 -36 -48 -76 -83 -87 -76 -4
3 -1 16 7 29 9 13 16 32 16 42 0 26 57 110 80 117 10 3 42 32 69 64 51 58 66
86 34 60 -12 -10 -15 -11 -9 -1 4 7 2 20 -6 30 -12 15 -11 16 5 3 9 -8 20 -11
23 -9 3 3 -5 14 -18 24 -38 31 -78 91 -82 123 -2 23 0 28 12 23 12 -4 14 -1 9
12 -6 14 -3 17 9 12 9 -3 26 -8 37 -10 12 -2 16 -1 10 1 -24 8 -13 25 12 21
13 -3 22 -1 19 3 -3 5 -12 9 -20 9 -8 0 -12 4 -9 10 4 6 -1 7 -11 3 -14 -5
-15 -3 -5 15 13 24 9 28 -47 40 -37 9 -43 7 -56 -13 -15 -23 -38 -116 -36
-150 5 -140 -22 -228 -85 -275 -11 -8 -31 -26 -45 -40 -30 -31 -71 -50 -109
-50 l-29 0 40 43 c50 54 108 141 108 161 0 14 -7 13 -47 -7 -80 -39 -150 -55
-353 -82 -107 -14 -208 -30 -225 -35 -25 -7 -27 -7 -11 3 26 17 346 297 346
303 0 3 -5 2 -10 -1 -6 -4 -8 3 -6 17 2 13 9 22 16 20 6 -1 9 2 5 8 -3 6 1 17
9 26 15 14 17 14 32 0 20 -21 22 -21 85 14 60 33 81 37 98 16 10 -12 19 -12
56 -1 24 8 53 19 64 25 12 6 37 11 56 12 23 1 35 6 35 15 0 10 -7 12 -22 7
l-23 -6 23 19 c28 26 29 37 0 22 -18 -9 -24 -8 -34 6 -15 20 -9 64 17 149 11
32 19 67 19 77 0 10 5 21 10 24 6 4 10 -16 11 -52 0 -42 3 -52 9 -38 8 19 9
19 9 -2 1 -12 -3 -23 -7 -25 -5 -1 -7 -20 -4 -42 3 -28 7 -34 14 -25 9 13 4
-14 -10 -50 -4 -11 -1 -13 14 -7 31 12 115 26 124 21 12 -8 16 10 12 60 -3 29
-9 45 -17 45 -11 0 -11 5 0 28 8 15 19 70 24 122 5 52 12 107 15 123 l6 27
-102 -5 c-73 -4 -96 -3 -81 4 l23 10 -28 29 c-15 16 -32 27 -39 25 -11 -4 -34
17 -67 62 -20 27 -24 20 -28 -53 -2 -34 -6 -62 -10 -62 -4 0 -16 -19 -26 -42
-10 -24 -26 -49 -35 -57 -24 -19 -21 -8 8 35 14 21 32 61 41 91 14 48 14 63 0
158 -9 58 -16 109 -16 113 0 4 -5 0 -10 -8 -7 -11 -12 -12 -17 -3 -5 6 -9 -14
-10 -45 -1 -32 -5 -97 -10 -147 l-9 -90 -7 107 c-5 74 -4 128 5 175 7 37 13
107 13 156 -1 77 1 86 16 82 13 -4 17 4 22 46 6 48 -1 82 -16 80 -19 -3 -27 0
-42 15 -15 15 -15 18 0 34 32 35 -4 31 -43 -5 -24 -21 -49 -35 -63 -34 -13 1
-51 -6 -84 -14 -33 -9 -102 -23 -152 -32 -86 -16 -111 -27 -81 -37 17 -6 -29
-68 -50 -69 -12 0 -10 -3 6 -9 19 -8 21 -13 12 -30 -14 -26 -49 -44 -82 -42
-43 3 -33 -15 12 -23 46 -8 51 -25 18 -61 -29 -30 -42 -31 -27 -1 27 52 -13
-3 -48 -67 -21 -38 -43 -71 -49 -73 -5 -2 -18 11 -27 29 -18 33 -15 19 7 -35
9 -24 6 -36 -22 -90 -29 -58 -44 -102 -22 -67 5 8 12 11 16 7 22 -22 -253
-245 -444 -361 -35 -21 -84 -57 -110 -79 -26 -22 -61 -46 -79 -53 -43 -19
-107 -18 -144 2 -53 27 -276 94 -293 88 -9 -3 -16 -2 -16 3 0 5 -15 17 -32 28
-18 10 -51 37 -73 60 -23 23 -47 39 -58 37 -13 -3 -15 1 -10 14 5 14 3 16 -11
11 -13 -5 -17 -3 -13 6 3 7 -4 19 -14 26 -11 6 -17 17 -13 23 5 8 2 9 -10 5
-9 -4 -15 -3 -12 2 5 8 -26 51 -36 51 -16 0 -335 312 -359 350 -13 22 -27 40
-31 40 -5 0 -8 10 -8 23 -1 12 -9 45 -19 74 -10 29 -13 49 -8 46 5 -3 13 1 18
8 7 11 9 11 9 1 0 -7 4 -11 9 -7 5 3 32 -3 59 -14 27 -11 69 -22 93 -25 59 -8
30 7 -43 23 -43 9 -64 20 -83 42 -14 17 -25 35 -25 40 0 14 16 11 30 -6 7 -8
18 -15 24 -15 6 0 3 5 -7 11 -34 20 -49 74 -41 150 7 70 17 92 28 63 3 -8 10
-12 16 -9 5 3 10 0 10 -8 0 -15 44 -32 59 -23 12 8 118 -82 139 -119 15 -27 9
128 -7 168 -6 16 -11 30 -11 32 0 2 21 7 48 10 102 14 262 62 262 80 0 2 -19
-3 -42 -11 -48 -17 -118 -12 -180 13 -28 11 -41 12 -57 3 -14 -7 -21 -7 -21 0
0 5 7 10 15 10 8 0 15 5 15 10 0 6 -6 10 -13 10 -7 0 -28 15 -45 33 -25 26
-35 47 -42 93 -6 32 -10 61 -10 63 0 2 28 1 63 -1 58 -4 100 -22 154 -68 27
-22 32 -8 6 15 -18 15 -23 24 -14 25 11 0 9 4 -5 15 -18 14 -18 14 6 14 14 0
50 -8 80 -19 30 -10 56 -17 58 -16 6 7 -129 56 -152 56 -53 0 -93 76 -103 196
-6 72 6 100 67 159 23 22 57 55 76 73 19 18 38 31 43 28 4 -3 16 3 26 14 10
11 13 20 7 20 -6 0 -16 -8 -21 -17 -6 -10 -11 -13 -11 -7 0 27 134 106 142 83
2 -6 17 -3 35 6 54 27 99 29 171 9 37 -10 71 -17 75 -16 5 1 6 -1 3 -6 -6 -9
29 -29 99 -58 23 -9 34 -18 27 -21 -8 -3 -30 2 -50 11 -45 20 -145 33 -192 26
-29 -5 -24 -7 35 -13 84 -9 117 -25 54 -25 -70 0 -241 -20 -282 -32 -20 -6
-42 -8 -47 -5 -6 3 -10 1 -10 -5 0 -6 -11 -8 -25 -6 -29 5 -36 -19 -7 -26 9
-3 32 -26 50 -52 37 -51 35 -61 -4 -18 l-26 27 22 -30 c14 -20 31 -30 50 -31
28 -2 28 -1 12 27 -9 15 -19 26 -21 23 -5 -5 -31 16 -31 26 0 4 21 10 48 14
26 3 72 10 102 14 81 13 90 8 90 -49 0 -51 14 -99 33 -111 17 -11 -64 1 -152
23 -80 20 -98 23 -88 12 9 -8 291 -83 337 -90 22 -3 30 -1 22 4 -13 10 9 33
56 61 28 16 32 15 32 -3 0 -8 5 -15 10 -15 6 0 10 -7 10 -15 0 -12 4 -13 19
-5 27 14 31 13 31 -7 0 -22 76 -103 95 -103 8 0 16 -3 18 -7 6 -10 -30 -13
-187 -15 -110 -1 -131 1 -141 15 -14 19 -25 22 -25 6 0 -5 14 -23 31 -38 40
-37 135 -60 358 -87 51 -6 53 -8 35 -21 -10 -7 -49 -23 -86 -34 -38 -12 -68
-25 -68 -30 0 -12 6 -12 75 6 33 8 77 25 98 36 21 12 68 25 104 29 37 5 73 15
82 24 14 15 13 18 -14 41 -29 23 -30 24 -5 19 25 -5 25 -5 3 8 -19 11 -12 13
60 13 67 0 91 4 130 24 26 14 47 28 47 32 0 4 7 15 16 24 28 27 9 27 -41 -1
-26 -14 -44 -20 -40 -14 6 10 1 12 -19 8 -21 -4 -24 -3 -15 9 7 7 9 16 5 20
-3 3 -6 1 -6 -5 0 -7 -4 -12 -10 -12 -5 0 -10 7 -10 15 0 9 9 15 24 15 13 0
42 7 65 15 23 8 45 15 49 16 29 7 62 22 62 28 0 4 12 13 27 20 19 9 23 15 15
20 -7 4 -10 14 -7 22 5 14 -46 92 -56 86 -2 -1 1 3 6 8 6 6 14 18 18 28 5 13
13 16 26 12 18 -6 38 12 67 61 6 11 22 17 41 17 27 0 34 6 49 39 9 21 24 44
32 51 13 10 14 9 4 -10 -17 -30 -15 -36 8 -30 11 3 20 2 20 -2 0 -20 -25 -78
-40 -91 -9 -8 -22 -30 -29 -48 -19 -45 -4 -59 37 -38 33 17 62 21 62 9 0 -5
-14 -24 -30 -43 -16 -19 -30 -39 -30 -44 0 -4 -27 -6 -60 -4 -86 6 -93 -10
-25 -51 56 -34 64 -47 43 -70 -10 -11 -10 -14 0 -18 6 -3 12 -13 12 -23 0 -10
-6 -21 -12 -23 -8 -3 -5 -6 5 -6 18 -1 56 -37 57 -53 0 -18 -48 -6 -90 22 -25
16 -55 30 -67 30 -32 0 -79 -20 -67 -28 6 -4 13 -15 17 -24 3 -10 17 -18 29
-18 26 -1 91 -28 68 -29 -8 0 -40 6 -70 14 -69 19 -82 19 -106 0 -19 -15 -19
-15 0 -26 18 -11 18 -12 -4 -24 -20 -11 -13 -12 51 -11 71 1 139 -16 139 -35
0 -14 -24 -11 -46 6 -10 8 -22 15 -25 15 -10 0 -32 -88 -26 -109 4 -17 1 -18
-24 -11 -35 10 -44 15 -92 53 -21 16 -40 27 -43 24 -12 -12 11 -30 86 -66 43
-21 89 -46 101 -55 25 -17 104 -22 113 -7 3 5 15 11 26 14 18 5 19 3 9 -9 -19
-24 -66 -45 -83 -38 -22 8 -20 -9 2 -29 17 -16 23 -15 79 5 58 21 61 21 78 4
14 -14 16 -22 7 -41 -7 -15 -8 -26 -2 -30 6 -4 10 3 10 15 0 12 4 18 10 15 7
-4 9 2 5 17 -3 12 -1 30 5 38 9 13 11 13 20 0 8 -14 7 -33 -7 -83 -3 -10 -11
-16 -18 -14 -13 6 -35 -11 -35 -26 0 -5 7 -4 15 3 9 8 15 8 15 2 0 -6 -7 -17
-15 -26 -27 -27 -18 -37 28 -30 48 8 149 58 139 69 -4 4 3 4 15 1 12 -4 24 -2
28 3 3 7 0 8 -9 5 -27 -11 -17 10 18 36 19 14 32 28 30 31 -2 3 8 17 21 29 14
13 25 29 25 36 0 15 39 63 40 49 0 -6 -7 -21 -16 -33 -8 -12 -12 -22 -8 -22 4
0 -3 -11 -15 -24 -13 -14 -21 -30 -19 -36 2 -7 20 9 39 34 20 25 39 43 42 40
8 -8 82 150 91 194 8 35 26 44 26 13 0 -11 -9 -48 -20 -83 -18 -56 -39 -211
-24 -180 3 6 12 12 20 12 8 0 15 8 16 18 0 9 2 28 3 42 2 27 34 94 35 73 0
-20 18 -15 25 6 9 30 33 185 29 190 -2 2 -13 -7 -25 -20 -18 -21 -20 -21 -13
-4 35 96 46 141 53 211 5 45 11 86 15 92 8 13 26 137 35 240 6 74 5 82 -11 82
-21 0 -42 -45 -68 -145 l-18 -70 -3 123 c-4 121 -15 155 -33 97 -18 -59 -19
-59 -26 -4 -7 55 -24 92 -46 96 -6 1 -20 -41 -32 -95 -27 -123 -52 -221 -63
-247 -9 -19 -9 -19 -4 1 3 12 8 108 10 214 3 106 9 231 15 277 11 84 7 121 -6
69 -3 -14 -9 -26 -13 -26 -4 0 -13 -32 -20 -72 -7 -40 -17 -81 -22 -93 -4 -11
-11 -37 -14 -59 -5 -28 -9 -36 -17 -28 -8 8 -23 -7 -54 -54 -23 -35 -44 -59
-47 -52 -2 7 0 21 5 31 14 27 23 197 11 197 -6 0 -13 -27 -16 -60 -4 -33 -10
-72 -13 -85 -5 -22 -8 -23 -21 -9 -8 8 -23 12 -32 9 -15 -4 -17 0 -13 25 3 25
1 29 -12 24 -9 -3 -16 -10 -16 -15 0 -13 -28 -11 -32 2 -3 8 -9 7 -19 -3 -22
-23 -43 -26 -55 -9 -10 12 -14 10 -28 -18 -10 -18 -19 -31 -21 -29 -3 3 11 97
20 131 4 16 3 18 -3 7 -6 -8 -13 -31 -17 -50 -9 -42 -55 -120 -72 -120 -6 0
-15 5 -18 10 -12 20 -45 9 -79 -27 -48 -51 -45 -28 9 65 25 42 45 81 45 87 0
6 9 28 21 49 11 21 18 47 16 57 -3 10 0 20 7 22 6 2 8 7 5 11 -4 4 -30 -3 -59
-14 -29 -11 -55 -19 -57 -16 -3 3 7 17 21 31 25 25 31 35 22 35 -3 0 -12 -7
-21 -16 -20 -21 -32 -10 -14 12 8 10 10 15 4 13 -5 -3 -35 -17 -65 -32 -64
-31 -101 -37 -107 -19 -3 7 11 20 35 30 32 13 43 25 52 54 8 29 16 38 33 38
12 0 33 7 46 16 22 16 24 16 41 -5 l16 -23 77 33 c75 31 88 44 67 65 -8 8 -6
15 5 24 8 7 15 25 15 40 0 31 15 40 64 40 18 0 38 6 45 13 10 9 15 9 18 0 2
-7 11 -9 19 -6 9 3 28 -9 50 -33 19 -22 39 -38 44 -36 6 1 10 -5 10 -13 0 -8
5 -15 10 -15 6 0 10 14 10 30 0 36 25 100 38 100 14 0 28 -21 43 -65 7 -22 16
-44 21 -49 10 -13 24 28 32 95 7 53 9 57 37 63 27 5 42 26 19 26 -5 0 -10 6
-10 14 0 8 -7 22 -16 30 -14 15 -13 16 8 16 32 0 52 -37 89 -162 32 -111 48
-148 61 -148 4 0 8 15 8 34 0 19 4 37 9 41 13 8 31 -27 32 -62 0 -15 4 -37 8
-48 18 -43 24 79 12 209 -14 139 -21 158 -80 214 -43 41 -81 62 -141 79 -62
17 -62 17 -58 -22 3 -36 0 -38 -44 -21 -21 8 -26 15 -22 29 3 11 0 31 -7 45
-16 31 -89 107 -108 113 -9 3 -15 25 -17 66 -3 76 -12 94 -88 165 -59 55 -122
88 -171 88 -12 0 -63 27 -113 60 -51 33 -95 60 -98 60 -3 0 -25 14 -50 30 -47
33 -59 56 -21 44 12 -4 33 -8 47 -9 14 -1 42 -9 64 -19 51 -21 54 -21 25 10
-13 14 -24 32 -24 41 0 9 -8 17 -17 19 -9 1 -47 14 -83 29 -40 16 -77 24 -90
21 -14 -4 -44 4 -77 19 -29 14 -65 25 -80 25 -16 0 -28 6 -28 13 0 17 -129 76
-174 79 -20 1 -36 6 -36 10 0 9 -8 9 -29 1z m178 -80 c42 -27 7 -26 -45 2 -47
25 -48 26 -15 21 19 -4 46 -14 60 -23z m-28 -42 c-11 -7 -11 -10 0 -15 8 -3 4
-4 -8 -2 -13 2 -23 1 -23 -4 0 -11 27 -20 63 -20 22 0 28 -3 20 -11 -16 -16
-107 -21 -212 -12 -76 6 -95 11 -97 25 -1 10 8 19 25 23 76 20 258 32 232 16z
m-1858 -28 c-8 -3 -7 -12 5 -32 15 -26 15 -30 -1 -55 -30 -44 -67 -32 -81 28
-6 23 -4 27 8 23 9 -4 15 -3 15 1 -3 19 3 22 24 11 21 -12 22 -11 4 8 -17 20
-17 20 10 20 15 0 23 -2 16 -4z m1945 -48 c-1 -14 -6 -25 -10 -25 -4 0 -8 11
-8 25 0 14 4 25 10 25 5 0 9 -11 8 -25z m32 -5 c0 -5 -2 -10 -4 -10 -3 0 -8 5
-11 10 -3 6 -1 10 4 10 6 0 11 -4 11 -10z m-1193 -177 c-3 -10 -5 -2 -5 17 0
19 2 27 5 18 2 -10 2 -26 0 -35z m-677 -23 c0 -5 -4 -10 -10 -10 -5 0 -10 5
-10 10 0 6 5 10 10 10 6 0 10 -4 10 -10z m1277 -82 c-3 -8 -6 -5 -6 6 -1 11 2
17 5 13 3 -3 4 -12 1 -19z m224 -55 c-12 -20 -14 -14 -5 12 4 9 9 14 11 11 3
-2 0 -13 -6 -23z m1039 11 c0 -8 -19 -13 -24 -6 -3 5 1 9 9 9 8 0 15 -2 15 -3z
m-1059 -71 c-12 -20 -14 -14 -5 12 4 9 9 14 11 11 3 -2 0 -13 -6 -23z m-1947
-28 c6 -10 21 -36 34 -57 26 -44 27 -48 9 -48 -16 0 -71 74 -82 108 -6 19 -4
23 10 20 10 -1 23 -12 29 -23z m216 -62 c0 -28 -46 -107 -80 -138 -11 -10 -20
-22 -20 -27 0 -5 15 8 33 29 71 83 67 80 67 49 0 -15 -5 -37 -11 -49 -27 -51
-144 -187 -204 -237 -22 -18 -95 -30 -95 -16 0 6 -11 -2 -24 -19 -24 -29 -25
-30 -40 -10 -13 18 -13 22 6 43 20 20 23 21 44 7 31 -20 36 -19 32 7 -2 12
-15 29 -30 38 -23 12 -33 13 -59 3 -18 -7 -34 -11 -36 -9 -13 13 250 286 276
286 4 0 15 7 22 17 21 25 71 53 97 53 17 0 22 -6 22 -27z m-1375 -3 c3 -5 1
-10 -4 -10 -6 0 -11 5 -11 10 0 6 2 10 4 10 3 0 8 -4 11 -10z m812 -42 c-3 -7
-5 -2 -5 12 0 14 2 19 5 13 2 -7 2 -19 0 -25z m647 -127 c5 -100 1 -103 -18
-11 -2 8 -8 28 -15 45 -9 23 -9 40 0 80 12 48 13 49 20 21 5 -16 10 -77 13
-135z m-1406 44 c-1 -47 -2 -47 -5 -10 -3 22 -9 42 -14 46 -5 3 -7 13 -3 23
11 30 24 -3 22 -59z m3876 -88 c77 -53 203 -96 311 -106 l80 -8 -61 -2 c-112
-2 -298 61 -374 127 -50 45 -29 39 44 -11z m-647 1 c-3 -8 -6 -5 -6 6 -1 11 2
17 5 13 3 -3 4 -12 1 -19z m-720 -75 c-3 -10 -5 -2 -5 17 0 19 2 27 5 18 2
-10 2 -26 0 -35z m970 21 c4 -11 -4 -25 -25 -43 -30 -25 -32 -28 -26 -78 7
-57 -1 -66 -30 -34 -17 19 -14 62 6 87 5 7 2 16 -7 24 -12 10 -13 16 -3 27 26
32 75 41 85 17z m1023 -36 c0 -15 -28 -9 -34 8 -11 30 -6 37 14 19 11 -10 20
-22 20 -27z m-3530 -26 c0 -4 -18 -26 -40 -47 -22 -21 -40 -44 -40 -50 0 -6
-18 -10 -40 -10 l-39 0 22 25 c13 14 31 38 41 53 9 15 21 25 26 22 4 -3 19 -1
32 4 30 12 38 13 38 3z m-23 -129 c-9 -9 -19 -14 -23 -11 -10 10 6 28 24 28
15 0 15 -1 -1 -17z m2515 -35 c15 -23 49 -27 103 -14 51 13 15 -10 -50 -31
-33 -11 -67 -23 -75 -26 -8 -4 -21 -3 -29 2 -11 7 -11 16 5 50 22 47 26 49 46
19z m-806 -45 c-11 -11 -19 6 -11 24 8 17 8 17 12 0 3 -10 2 -21 -1 -24z m899
-68 c-38 -24 -136 -65 -154 -65 -13 0 -35 29 -28 37 9 9 169 51 197 52 22 0
21 -2 -15 -24z m-3375 -117 c0 -45 -15 -32 -17 14 -1 29 1 38 7 28 6 -8 10
-27 10 -42z m-70 13 c0 -10 7 -24 15 -31 8 -7 15 -19 15 -28 0 -18 48 -104 64
-114 6 -4 7 -10 3 -14 -4 -4 -14 1 -23 12 -8 10 -13 13 -9 7 3 -7 1 -13 -4
-13 -6 0 -12 6 -12 13 -1 6 -5 -8 -9 -33 -10 -59 -2 -121 26 -196 20 -55 21
-64 8 -89 -8 -15 -15 -46 -15 -69 -1 -42 -16 -112 -18 -87 0 8 -4 11 -8 8 -4
-4 -13 7 -20 24 -18 42 -16 165 3 321 16 124 16 130 -2 163 -10 19 -23 35 -27
35 -5 0 -6 11 -3 25 4 14 2 25 -3 25 -8 0 -9 42 -2 58 5 11 21 -2 21 -17z
m-850 -62 c-24 -7 -24 -7 5 -8 20 -1 26 -4 19 -11 -7 -7 -19 -8 -37 -1 -43 17
-35 42 11 33 l27 -6 -25 -7z m78 -6 c2 -7 -4 -13 -13 -13 -9 0 -14 4 -10 9 3
5 -3 12 -12 15 -11 3 -9 4 6 3 14 -1 26 -8 29 -14z m102 -252 c0 -6 -4 -13
-10 -16 -5 -3 -10 1 -10 9 0 9 5 16 10 16 6 0 10 -4 10 -9z m4760 -41 c0 -5
-4 -10 -10 -10 -5 0 -10 5 -10 10 0 6 5 10 10 10 6 0 10 -4 10 -10z m-796 -25
c-10 -8 -26 -14 -34 -14 -9 0 -4 6 10 14 33 19 49 19 24 0z m-2866 -113 c2
-76 0 -92 -12 -92 -23 0 -27 13 -31 97 -4 76 3 98 30 90 6 -2 11 -45 13 -95z
m-481 56 c-3 -8 -6 -5 -6 6 -1 11 2 17 5 13 3 -3 4 -12 1 -19z m3401 -23 c-3
-3 -9 2 -12 12 -6 14 -5 15 5 6 7 -7 10 -15 7 -18z m-4218 -20 c0 -8 -4 -15
-10 -15 -5 0 -7 7 -4 15 4 8 8 15 10 15 2 0 4 -7 4 -15z m4005 -16 c-17 -8
-16 -9 5 -3 14 3 30 5 35 5 66 -6 101 -5 106 2 4 5 15 7 25 5 15 -3 11 -8 -18
-22 -21 -10 -38 -22 -38 -27 0 -13 14 -11 36 6 10 8 26 15 35 15 9 0 19 7 23
15 3 8 11 15 17 15 8 0 7 -5 -2 -17 -12 -15 -12 -16 5 -10 17 7 18 6 4 -14
-25 -39 -178 -119 -238 -125 -32 -4 -38 0 -67 40 -18 25 -35 62 -39 82 l-7 37
40 -5 c22 -3 47 -2 54 3 8 5 21 8 29 8 10 0 9 -3 -5 -10z m-150 -10 c-4 -6
-13 -8 -21 -5 -7 3 -18 -3 -23 -12 -9 -15 -10 -14 -8 6 1 17 7 22 30 22 17 0
26 -4 22 -11z m751 -37 c-17 -16 -18 -16 -5 5 7 12 15 20 18 17 3 -2 -3 -12
-13 -22z m226 -4 c-6 -6 -19 -7 -29 -3 -17 7 -17 8 2 15 24 9 41 2 27 -12z
m-4314 -68 c-14 -22 -48 -27 -48 -7 0 20 10 27 37 27 21 0 22 -2 11 -20z
m3309 -13 c18 -12 33 -25 33 -30 0 -8 -43 12 -94 45 l-31 20 30 -7 c17 -3 45
-16 62 -28z m413 3 c-13 -25 -29 -29 -64 -17 -25 9 -27 12 -13 22 8 6 31 11
51 12 31 1 34 -1 26 -17z m-620 -5 c24 -14 24 -14 3 -15 -30 0 -54 10 -47 21
7 12 14 11 44 -6z m670 11 c0 -2 -7 -6 -15 -10 -8 -3 -15 -1 -15 4 0 6 7 10
15 10 8 0 15 -2 15 -4z m-130 -26 c25 -16 -14 -37 -58 -31 l-37 5 30 7 c17 4
26 7 22 8 -12 2 2 21 16 21 7 0 19 -5 27 -10z m-2955 -36 c-23 -17 -63 -29
-72 -21 -3 4 -3 13 0 22 5 10 20 15 49 15 41 -1 42 -1 23 -16z m1275 4 c0 -4
-13 -6 -30 -6 -16 1 -30 5 -30 9 0 5 13 7 30 6 16 -1 30 -5 30 -9z m-1935 -22
c13 -13 29 -42 36 -64 10 -35 9 -43 -4 -56 -9 -9 -20 -16 -24 -16 -5 0 -17
-15 -25 -32 -16 -32 -16 -31 -15 65 1 55 -1 101 -5 103 -12 7 -10 24 2 24 6 0
22 -11 35 -24z m4358 -6 c-7 -28 -50 -53 -79 -46 -33 9 -30 17 14 43 48 28 72
30 65 3z m-4455 -15 c-6 -14 -13 -23 -15 -21 -5 5 15 46 22 46 3 0 -1 -11 -7
-25z m469 -7 c-3 -7 -5 -2 -5 12 0 14 2 19 5 13 2 -7 2 -19 0 -25z m3108 -29
c5 -6 3 -9 -7 -9 -9 0 -18 6 -21 13 -2 6 -8 8 -13 4 -5 -5 -1 -15 10 -23 16
-11 17 -14 4 -14 -9 0 -18 -3 -21 -7 -2 -5 -2 -2 -1 5 4 16 -2 15 -31 -4 -33
-21 -65 -10 -65 23 0 21 3 23 14 14 17 -14 31 2 22 25 -12 31 5 33 52 7 26
-14 51 -29 57 -34z m-1669 -69 c-2 -3 -14 -39 -27 -80 -21 -68 -24 -72 -29
-45 l-6 30 -5 -32 c-3 -18 -2 -30 2 -27 13 8 20 -14 13 -40 -4 -16 -11 -23
-18 -19 -7 5 -7 2 1 -8 7 -8 8 -20 4 -28 -6 -9 -10 -5 -15 15 -5 17 -10 23
-14 16 -10 -15 -7 68 2 90 5 10 9 29 10 42 1 20 4 22 20 14 13 -7 16 -7 12 1
-9 15 4 81 16 81 5 0 7 -14 3 -32 -5 -27 -4 -30 5 -15 6 9 10 25 9 35 -3 30 1
38 10 22 6 -8 8 -17 7 -20z m1759 20 c3 -6 -1 -7 -9 -4 -18 7 -21 14 -7 14 6
0 13 -4 16 -10z m-35 -4 c0 -2 -7 -7 -16 -10 -8 -3 -12 -2 -9 4 6 10 25 14 25
6z m970 -41 c-35 -36 -51 -45 -78 -45 -29 0 -32 2 -23 14 7 8 32 21 57 30 24
8 51 22 60 30 8 9 18 16 22 16 3 0 -14 -20 -38 -45z m-4580 -22 c0 -24 -46
-80 -91 -110 -22 -14 -37 -28 -34 -31 2 -3 30 0 62 6 123 23 123 23 123 1 0
-17 -5 -20 -22 -16 -12 4 -42 0 -67 -8 -25 -7 -95 -19 -154 -26 -132 -15 -153
-5 -80 37 26 15 64 37 83 48 19 11 41 20 48 18 6 -2 12 3 12 10 0 16 87 88
106 88 8 0 14 -7 14 -17z m1975 -23 c-3 -5 -23 -10 -43 -10 -28 0 -33 3 -22
10 20 13 73 13 65 0z m33 -17 c-2 -23 -8 -28 -33 -30 -27 -2 -28 -2 -7 7 12 5
22 18 22 30 0 11 5 20 11 20 6 0 9 -12 7 -27z m-45 -10 c-13 -2 -33 -2 -45 0
-13 2 -3 4 22 4 25 0 35 -2 23 -4z m2456 -43 c0 -9 -4 -8 -9 5 -5 11 -9 27 -9
35 0 9 4 8 9 -5 5 -11 9 -27 9 -35z m-713 25 c16 -8 22 -15 13 -15 -8 0 -24 7
-35 15 -25 19 -14 19 22 0z m-1158 -35 l23 -40 -25 0 c-39 0 -56 10 -56 34 0
20 17 46 30 46 3 0 15 -18 28 -40z m1642 10 c20 -6 21 -8 5 -8 -11 0 -31 4
-45 8 -20 6 -21 8 -5 8 11 0 31 -4 45 -8z m525 -67 c-14 -31 -28 -59 -32 -63
-12 -11 9 74 24 96 28 44 33 24 8 -33z m56 3 c-14 -36 -22 -33 -9 5 6 16 12
28 14 26 3 -2 0 -16 -5 -31z m-27 0 c-3 -9 -10 -16 -15 -16 -5 0 -4 9 3 20 14
22 21 20 12 -4z m-2652 -96 c-3 -87 -30 -202 -46 -197 -6 2 -13 14 -17 28 -8
29 -10 26 -14 -26 -4 -56 -4 -55 -19 -55 -16 0 -66 38 -66 51 0 5 7 9 15 9 8
0 15 7 15 15 0 8 6 15 13 15 6 0 22 9 35 18 23 18 23 20 11 79 -13 61 -12 62
16 103 44 63 61 52 57 -40z m2285 -17 c21 -32 40 -60 43 -63 9 -8 10 -50 1
-50 -17 0 -40 38 -65 103 -14 37 -23 67 -21 67 3 0 22 -26 42 -57z m-3575 -5
c-7 -25 -9 -26 -32 -13 l-25 13 28 7 c15 4 27 12 27 18 0 6 2 8 5 6 2 -3 1
-17 -3 -31z m3358 20 c-1 -7 -7 -24 -15 -38 -15 -26 -19 -12 -9 28 7 23 24 31
24 10z m-2330 -49 c0 -6 -4 -7 -10 -4 -5 3 -10 11 -10 16 0 6 5 7 10 4 6 -3
10 -11 10 -16z m-1900 2 c0 -9 -119 -35 -127 -27 -3 2 15 10 38 16 24 6 49 13
54 15 19 7 35 5 35 -4z m4307 -20 c-10 -4 -18 -11 -18 -16 1 -6 -10 -10 -24
-10 -14 -1 -25 5 -25 11 0 16 17 22 55 23 22 0 25 -2 12 -8z m-3961 -123 c33
-35 64 -104 68 -149 3 -31 -1 -43 -17 -54 -25 -17 -37 -11 -37 19 0 12 -14 44
-31 71 -23 36 -31 61 -32 101 -2 57 7 59 49 12z m2018 -87 c-4 -41 -10 -58
-15 -50 -11 17 -12 153 -2 163 14 14 23 -49 17 -113z m133 77 c31 -13 37 -15
56 -17 6 -2 3 -6 -8 -11 -13 -5 -26 -3 -35 5 -23 19 -64 30 -55 15 5 -9 4 -11
-4 -6 -12 8 -6 26 9 26 5 0 21 -5 37 -12z m-2263 -42 l34 -14 -5 -73 c-5 -67
-4 -71 11 -56 17 17 21 45 11 92 -6 27 -3 25 25 -17 33 -50 37 -70 26 -128
l-8 -35 25 26 c29 32 64 52 71 41 9 -15 -45 -93 -71 -103 -39 -15 -78 -11
-106 11 -14 11 -29 20 -34 19 -18 -3 -33 2 -33 11 0 15 48 81 52 73 3 -5 3 -2
1 6 -2 7 2 20 8 27 9 11 9 14 0 14 -6 0 -16 12 -21 26 -9 23 -15 26 -44 21
-25 -4 -36 -1 -40 10 -11 27 -6 40 17 51 30 15 42 14 81 -2z m1233 -18 c-3 -8
-6 -5 -6 6 -1 11 2 17 5 13 3 -3 4 -12 1 -19z m684 -71 c-4 -4 -8 -2 -8 5 0 7
-2 18 -3 23 -1 6 -1 19 0 30 1 13 5 7 10 -15 5 -19 5 -39 1 -43z m-674 31 c-3
-8 -6 -5 -6 6 -1 11 2 17 5 13 3 -3 4 -12 1 -19z m27 -97 c-7 -8 -12 4 -18 44
l-5 40 13 -40 c7 -22 12 -42 10 -44z m1116 64 c9 -11 9 -15 1 -15 -7 0 -9 -6
-5 -12 4 -7 1 -6 -7 2 -8 8 -20 21 -28 28 -13 10 -12 12 6 12 11 0 26 -7 33
-15z m-2500 -75 c5 0 2 -9 -7 -20 -27 -31 -33 -24 -32 33 l1 52 14 -32 c8 -18
19 -33 24 -33z m2020 50 c0 -5 -7 -7 -15 -4 -8 4 -15 8 -15 10 0 2 7 4 15 4 8
0 15 -4 15 -10z m-1490 -66 c0 -13 -19 -24 -100 -58 -8 -3 -26 -13 -40 -23
-39 -26 -5 6 63 61 57 45 77 50 77 20z m4048 -22 c-34 -36 -48 -62 -56 -98
-12 -56 -18 -231 -8 -241 3 -3 6 -13 6 -22 0 -11 -4 -9 -16 7 -9 13 -13 31 -9
42 4 11 2 20 -4 20 -16 0 -13 105 4 146 22 53 -3 29 -32 -30 -16 -34 -22 -41
-18 -21 11 48 78 178 95 182 8 2 23 17 32 34 9 16 25 29 34 29 12 0 3 -14 -28
-48z m-2413 -54 c6 -4 2 -8 -7 -8 -10 0 -18 7 -18 17 0 9 3 12 8 7 4 -5 12
-12 17 -16z m-2439 -67 c11 9 14 8 14 -5 0 -9 6 -16 14 -16 17 0 72 -61 81
-91 5 -16 2 -26 -10 -35 -21 -15 -41 -9 -77 24 -23 21 -25 28 -15 41 7 8 7 12
1 8 -13 -8 -34 34 -33 66 0 12 3 16 6 9 4 -10 8 -10 19 -1z m4711 -133 c-3 -8
-6 -5 -6 6 -1 11 2 17 5 13 3 -3 4 -12 1 -19z m-4059 -5 c-10 -2 -28 -2 -40 0
-13 2 -5 4 17 4 22 1 32 -1 23 -4z m332 -28 c0 -8 -4 -15 -10 -15 -5 0 -10 7
-10 15 0 8 5 15 10 15 6 0 10 -7 10 -15z m903 -152 c-2 -43 -8 -79 -13 -81 -5
-2 -6 -10 -3 -18 3 -7 9 -11 14 -8 14 8 10 -12 -4 -25 -25 -20 -37 9 -37 95 0
74 2 84 22 98 12 9 23 16 24 16 0 0 -1 -35 -3 -77z m2859 -94 c39 -42 45 -54
29 -63 -16 -10 -63 35 -58 55 3 11 2 17 -3 14 -4 -3 -10 4 -13 15 -8 29 2 25
45 -21z m-4858 15 c116 -29 171 -48 154 -52 -20 -4 -174 33 -221 53 -44 20 -9
19 67 -1z m1180 10 c9 -3 16 -18 16 -32 0 -24 1 -24 18 -9 10 10 25 17 33 17
28 0 67 -54 84 -117 24 -86 16 -133 -34 -204 -28 -39 -45 -78 -56 -127 -16
-69 -43 -112 -70 -112 -13 0 -35 -28 -35 -44 0 -3 25 -6 55 -6 30 0 55 -4 55
-9 0 -14 -43 -38 -91 -51 -24 -7 -87 -29 -139 -49 -120 -48 -217 -74 -255 -69
l-30 4 44 42 c31 29 39 42 27 42 -50 0 -130 66 -181 150 -26 43 -32 62 -28 90
3 19 9 40 13 45 4 6 10 30 14 54 10 65 40 123 85 164 21 19 36 38 33 42 -4 3
2 3 12 -1 14 -5 17 -4 12 4 -5 8 0 12 13 12 12 0 21 5 21 11 0 8 5 7 16 -2 13
-11 10 -15 -28 -33 -51 -25 -91 -90 -110 -178 -8 -40 -17 -58 -28 -59 -8 -1 2
-6 23 -11 21 -6 40 -8 43 -6 2 3 11 29 18 59 8 30 18 62 21 72 5 12 2 17 -9
17 -44 0 3 81 60 105 19 8 41 21 50 29 19 19 83 37 135 38 27 0 53 -9 86 -30
26 -17 50 -29 54 -26 4 2 10 18 14 35 9 40 -11 89 -37 89 -10 0 -16 5 -13 10
3 6 -1 10 -9 10 -9 0 -16 2 -16 4 0 2 -3 11 -6 20 -5 13 3 16 49 16 31 0 62
-3 71 -6z m436 -65 c0 -5 -9 -9 -20 -9 -11 0 -20 6 -20 14 0 9 7 12 20 9 11
-3 20 -9 20 -14z m387 -31 c-3 -8 -6 -5 -6 6 -1 11 2 17 5 13 3 -3 4 -12 1
-19z m3039 -34 c-10 -14 -20 -23 -23 -20 -3 3 2 17 11 32 10 14 20 23 23 20 3
-3 -2 -17 -11 -32z m-4435 -84 c24 -13 24 -39 2 -79 -12 -20 -26 -31 -40 -31
-26 0 -32 9 -38 54 -4 28 0 38 17 51 26 18 33 18 59 5z m4476 -20 c3 0 3 -7
-1 -15 -3 -8 0 -15 6 -15 6 0 4 -8 -6 -18 -15 -18 -14 -20 34 -46 27 -15 63
-38 79 -51 15 -14 31 -22 35 -18 3 3 6 -4 6 -17 0 -13 -3 -20 -7 -17 -3 4 -12
2 -19 -4 -15 -12 -55 6 -129 60 -27 20 -69 49 -93 65 -57 39 -60 46 -16 39 26
-4 35 -3 30 5 -4 7 3 14 19 18 14 3 25 10 25 15 0 12 -7 11 -32 -2 -25 -13
-34 -5 -17 14 12 13 19 13 48 1 18 -8 36 -14 38 -14z m-3693 -46 c3 -9 6 -28
6 -43 0 -20 7 -31 26 -40 29 -13 28 -35 -2 -38 -18 -3 -18 -2 1 6 19 8 19 8
-3 20 -22 11 -22 11 -22 -44 0 -49 2 -55 15 -43 51 46 46 49 76 -48 26 -85 26
-143 0 -197 -12 -24 -21 -48 -21 -54 0 -5 -14 -29 -30 -52 -32 -44 -42 -66
-54 -116 -7 -29 -7 -29 9 -10 15 18 16 18 11 2 -3 -10 -6 -23 -6 -29 0 -6 -7
-7 -16 -4 -8 3 -12 2 -9 -4 10 -16 -12 -12 -55 10 -43 22 -41 24 -55 -48 -5
-26 -15 -37 -42 -49 -33 -13 -39 -13 -87 10 -132 64 -134 65 -146 53 -10 -8
-10 -6 -2 9 5 11 6 29 1 40 -16 41 -10 54 29 64 20 6 56 11 79 11 23 0 63 7
89 16 26 9 55 13 66 11 12 -4 24 2 33 16 20 32 38 172 30 234 -6 50 -5 53 19
64 29 13 31 20 15 36 -10 10 4 203 17 224 8 14 21 11 28 -7z m663 -86 c-3 -8
-6 -5 -6 6 -1 11 2 17 5 13 3 -3 4 -12 1 -19z m1273 -48 c8 -5 11 -10 5 -10
-5 0 -17 5 -25 10 -8 5 -10 10 -5 10 6 0 17 -5 25 -10z m2147 -6 c-3 -3 -12
-4 -19 -1 -8 3 -5 6 6 6 11 1 17 -2 13 -5z m-2590 -69 c8 -8 19 -13 24 -10 5
4 9 1 9 -4 0 -10 -14 -15 -32 -12 -5 0 -8 -5 -8 -11 -1 -8 -6 -6 -14 5 -10 13
-21 16 -40 11 -32 -8 -34 7 -3 22 32 16 46 16 64 -1z m-2838 -18 c-2 -1 -12
-9 -22 -16 -15 -12 -17 -12 -11 3 3 9 13 16 22 16 8 0 13 -1 11 -3z m3496 -77
c19 -7 19 -8 -6 -18 -14 -6 -48 -24 -75 -40 -48 -29 -182 -84 -236 -96 -23 -5
-25 -3 -21 17 9 34 31 54 67 61 18 3 41 14 52 24 61 55 76 62 138 61 33 0 70
-4 81 -9z m-2248 -42 c-3 -8 -6 -5 -6 6 -1 11 2 17 5 13 3 -3 4 -12 1 -19z
m-1062 -82 c44 -39 48 -45 35 -60 -18 -22 -56 -41 -98 -49 -29 -6 -147 5 -209
18 -30 7 -29 23 2 31 14 3 23 10 20 14 -3 4 7 13 23 19 15 5 59 24 97 40 39
16 72 30 75 30 3 0 27 -19 55 -43z m990 -63 c8 -23 -36 -63 -69 -63 -13 0 -65
-9 -117 -20 -52 -11 -126 -27 -164 -34 -39 -8 -92 -26 -119 -40 -54 -29 -68
-26 -109 24 -16 19 -23 37 -20 50 5 20 23 28 23 11 0 -18 37 -21 72 -6 41 17
110 33 171 40 43 5 157 29 212 45 56 15 112 12 120 -7z m619 -18 c-4 -8 -8
-15 -10 -15 -2 0 -4 7 -4 15 0 8 4 15 10 15 5 0 7 -7 4 -15z m-318 -72 c-3 -4
-6 0 -6 7 0 9 -4 8 -13 -4 -13 -17 -14 -18 -20 -2 -4 10 -3 15 3 11 6 -3 13 1
17 10 6 16 7 16 15 0 6 -9 7 -19 4 -22z m2414 -44 c0 -10 -4 -20 -9 -24 -5 -3
-12 -19 -16 -35 -5 -23 -9 -27 -19 -18 -15 14 -13 66 4 98 9 17 14 19 26 9 8
-6 14 -20 14 -30z m-2450 16 c0 -2 -9 -3 -19 -2 -11 0 -18 5 -15 9 4 6 34 0
34 -7z m-56 -70 c-4 -8 -10 -12 -15 -9 -11 6 -2 24 11 24 5 0 7 -7 4 -15z
m2366 -82 c-8 -14 -9 -9 -5 22 l5 40 -13 -34 c-7 -19 -16 -30 -20 -25 -3 6 4
26 16 45 l22 34 3 -32 c2 -18 -2 -41 -8 -50z m-3305 37 c13 -6 15 -9 5 -9 -8
0 -22 4 -30 9 -18 12 -2 12 25 0z m935 -4 c0 -16 -26 -46 -41 -46 -5 0 -9 14
-9 30 0 25 4 30 25 30 15 0 25 -6 25 -14z m-900 -20 c0 -2 -11 -6 -25 -8 -14
-3 -25 -1 -25 3 0 5 11 9 25 9 14 0 25 -2 25 -4z m510 -11 c-7 -8 -17 -15 -22
-15 -11 0 14 29 26 30 5 0 3 -7 -4 -15z m-396 -4 c4 -5 -3 -7 -14 -4 -23 6
-26 13 -6 13 8 0 17 -4 20 -9z m315 0 c15 -9 7 -51 -10 -51 -6 0 -7 -5 -4 -11
10 -15 -42 -59 -69 -59 -29 0 -48 21 -36 39 7 13 25 18 72 20 11 1 15 6 12 16
-4 11 -2 13 9 9 22 -8 30 12 11 30 -17 17 -8 21 15 7z m-399 -15 c0 -9 -30
-14 -35 -6 -4 6 3 10 14 10 12 0 21 -2 21 -4z m-77 -23 c-7 -2 -21 -2 -30 0
-10 3 -4 5 12 5 17 0 24 -2 18 -5z m704 -9 c-3 -3 -12 -4 -19 -1 -8 3 -5 6 6
6 11 1 17 -2 13 -5z m56 -1 c-7 -2 -21 -2 -30 0 -10 3 -4 5 12 5 17 0 24 -2
18 -5z m-35 -30 c-10 -2 -26 -2 -35 0 -10 3 -2 5 17 5 19 0 27 -2 18 -5z m52
-3 c0 -5 -4 -10 -9 -10 -6 0 -13 5 -16 10 -3 6 1 10 9 10 9 0 16 -4 16 -10z
m277 -62 c-3 -8 -6 -5 -6 6 -1 11 2 17 5 13 3 -3 4 -12 1 -19z m3383 -121 c49
-28 171 -56 247 -58 l48 -1 -35 -10 c-38 -11 -190 -5 -212 8 -7 5 -20 7 -29 6
-27 -5 -133 73 -176 130 -24 30 -43 58 -43 61 0 4 35 -20 78 -52 42 -31 97
-69 122 -84z m178 44 l3 -74 -33 7 c-18 3 -34 11 -36 16 -2 6 -16 10 -30 10
l-27 0 28 26 c17 16 27 34 25 47 -4 33 11 49 40 45 26 -3 27 -5 30 -77z m300
19 c5 -60 -5 -90 -27 -90 -34 0 -41 49 -14 105 22 45 37 40 41 -15z m-4673 20
c-3 -5 1 -10 9 -10 9 0 16 -4 16 -10 0 -13 -21 -13 -40 0 -13 9 -13 11 0 20
19 12 23 12 15 0z m530 -9 c3 -5 1 -12 -5 -16 -5 -3 -10 1 -10 9 0 18 6 21 15
7z m-422 -28 c-13 -2 -33 -2 -45 0 -13 2 -3 4 22 4 25 0 35 -2 23 -4z m624
-55 c-3 -8 -6 -5 -6 6 -1 11 2 17 5 13 3 -3 4 -12 1 -19z m2976 -35 c-20 -42
-43 -55 -43 -25 0 24 52 90 58 73 2 -6 -5 -28 -15 -48z m-2926 -10 c-3 -10 -5
-4 -5 12 0 17 2 24 5 18 2 -7 2 -21 0 -30z m-25 -29 c-2 -55 -12 -54 -12 1 0
27 3 45 7 42 3 -4 6 -23 5 -43z m15 -26 c-3 -8 -6 -5 -6 6 -1 11 2 17 5 13 3
-3 4 -12 1 -19z m3343 -39 c-112 -190 -177 -289 -191 -289 -27 0 -15 38 40
127 57 92 168 229 178 219 2 -2 -10 -28 -27 -57z m624 39 c3 -13 9 -74 13
-137 6 -110 6 -114 -17 -131 l-23 -17 13 -115 c14 -124 11 -158 -9 -120 -13
25 -41 297 -41 405 0 73 20 137 43 137 8 0 17 -10 21 -22z m-4017 -10 c-3 -8
-6 -5 -6 6 -1 11 2 17 5 13 3 -3 4 -12 1 -19z m3648 6 c-22 -16 -63 -29 -71
-22 -2 3 -2 13 2 22 4 11 18 16 48 16 39 -1 40 -1 21 -16z m-3573 -36 c-8 -8
-9 -4 -5 13 4 13 8 18 11 10 2 -7 -1 -18 -6 -23z m-35 -25 c-3 -10 -5 -4 -5
12 0 17 2 24 5 18 2 -7 2 -21 0 -30z m2449 15 c3 -12 15 -31 25 -42 23 -24 26
-58 4 -50 -8 3 -13 11 -12 17 1 7 -3 11 -10 10 -7 -2 -10 3 -7 11 3 9 -1 13
-12 13 -17 -2 -20 9 -15 53 2 18 20 10 27 -12z m664 -8 c0 -5 -5 -10 -11 -10
-5 0 -7 5 -4 10 3 6 8 10 11 10 2 0 4 -4 4 -10z m-33 -15 c0 -8 -3 -13 -5 -10
-3 3 -11 0 -19 -6 -7 -6 -13 -8 -13 -4 0 6 26 31 36 35 0 0 1 -7 1 -15z m-47
-21 c0 -9 -32 -33 -44 -34 -5 0 -1 9 10 19 19 20 34 26 34 15z m11 -121 c-28
-55 -40 -63 -81 -53 -19 4 -27 8 -18 9 10 1 39 24 65 52 52 56 65 52 34 -8z
m-81 -23 c0 -5 -4 -10 -10 -10 -5 0 -10 5 -10 10 0 6 5 10 10 10 6 0 10 -4 10
-10z m447 -72 c-3 -7 -5 -2 -5 12 0 14 2 19 5 13 2 -7 2 -19 0 -25z m-563 -73
c11 -8 16 -15 10 -15 -5 0 -18 7 -28 15 -11 8 -16 15 -10 15 5 0 18 -7 28 -15z
m1539 8 c-7 -2 -19 -2 -25 0 -7 3 -2 5 12 5 14 0 19 -2 13 -5z m-442 -397
c-17 -37 -37 -74 -46 -82 -8 -8 -20 -23 -27 -32 -14 -19 -83 -74 -108 -86 -8
-4 -1 3 15 15 98 74 182 201 187 282 l1 32 4 -30 c3 -20 -7 -56 -26 -99z
m-1854 82 c-3 -8 -6 -5 -6 6 -1 11 2 17 5 13 3 -3 4 -12 1 -19z m26 7 c-3 -9
-8 -14 -10 -11 -3 3 -2 9 2 15 9 16 15 13 8 -4z m267 -15 c0 -5 -4 -10 -10
-10 -5 0 -10 5 -10 10 0 6 5 10 10 10 6 0 10 -4 10 -10z m-4 -31 c3 -6 16 -9
29 -7 13 3 22 0 22 -8 0 -8 -9 -9 -30 -3 -33 9 -59 29 -40 29 7 0 15 -5 19
-11z m-241 -9 c3 -5 2 -10 -4 -10 -5 0 -13 5 -16 10 -3 6 -2 10 4 10 5 0 13
-4 16 -10z m208 -7 c-7 -2 -13 -11 -13 -19 0 -8 -5 -14 -11 -14 -5 0 -7 5 -4
10 3 6 0 10 -7 11 -14 0 21 18 37 18 6 -1 4 -3 -2 -6z m-62 -17 c5 3 9 0 9 -5
0 -6 -4 -11 -10 -11 -5 0 -10 -13 -10 -30 0 -16 -5 -30 -11 -30 -7 0 -10 12
-7 30 3 17 0 30 -5 30 -5 0 -3 7 4 16 8 10 15 12 17 5 2 -6 8 -9 13 -5z m-366
-56 c3 -5 1 -10 -4 -10 -6 0 -11 5 -11 10 0 6 2 10 4 10 3 0 8 -4 11 -10z
m139 -16 c3 -8 2 -12 -4 -9 -6 3 -10 10 -10 16 0 14 7 11 14 -7z m-118 -51
c-10 -10 -19 5 -10 18 6 11 8 11 12 0 2 -7 1 -15 -2 -18z m114 17 c0 -5 -2
-10 -4 -10 -3 0 -8 5 -11 10 -3 6 -1 10 4 10 6 0 11 -4 11 -10z m17 -52 c-3
-8 -6 -5 -6 6 -1 11 2 17 5 13 3 -3 4 -12 1 -19z m40 2 c-3 -21 -17 -40 -17
-22 0 13 11 42 16 42 2 0 3 -9 1 -20z m-308 -35 c-12 -19 -26 -38 -32 -42 -11
-7 -5 6 25 50 27 38 31 34 7 -8z m60 -47 c1 -10 -4 -18 -10 -18 -6 0 -8 9 -3
22 6 21 6 21 -11 4 -13 -13 -15 -20 -6 -29 14 -14 14 -37 0 -37 -5 0 -7 5 -3
11 3 6 0 15 -7 20 -12 7 -12 12 -1 26 7 10 15 27 19 37 6 20 6 20 14 0 4 -10
8 -27 8 -36z m238 10 c-3 -7 -5 -2 -5 12 0 14 2 19 5 13 2 -7 2 -19 0 -25z
m-31 -5 c-10 -10 -19 5 -10 18 6 11 8 11 12 0 2 -7 1 -15 -2 -18z m2622 -48
c-3 -3 -9 2 -12 12 -6 14 -5 15 5 6 7 -7 10 -15 7 -18z m-2883 -15 c3 -5 1
-10 -4 -10 -6 0 -11 5 -11 10 0 6 2 10 4 10 3 0 8 -4 11 -10z m2782 -27 c-3
-10 -5 -4 -5 12 0 17 2 24 5 18 2 -7 2 -21 0 -30z m-2444 0 c-7 -2 -19 -2 -25
0 -7 3 -2 5 12 5 14 0 19 -2 13 -5z m70 0 c-7 -2 -19 -2 -25 0 -7 3 -2 5 12 5
14 0 19 -2 13 -5z m2554 -285 c-3 -8 -6 -5 -6 6 -1 11 2 17 5 13 3 -3 4 -12 1
-19z m-469 -10 c-2 -7 3 -12 10 -10 8 1 11 -2 6 -9 -11 -19 -22 -89 -13 -83 5
3 10 17 10 32 1 20 3 22 6 7 2 -12 -2 -36 -10 -54 l-14 -33 -12 47 c-12 46
-12 47 -31 30 -24 -21 -24 -18 -7 25 16 37 29 40 39 8 5 -14 6 -8 2 15 -3 22
-1 37 6 37 5 0 9 -6 8 -12z m-28 -8 c0 -5 -7 -7 -15 -4 -8 4 -15 8 -15 10 0 2
7 4 15 4 8 0 15 -4 15 -10z m-47 -30 c-3 -11 -7 -20 -9 -20 -2 0 -4 9 -4 20 0
11 4 20 9 20 5 0 7 -9 4 -20z m834 -62 c-3 -7 -5 -2 -5 12 0 14 2 19 5 13 2
-7 2 -19 0 -25z m-773 -53 c5 -24 4 -26 -4 -12 -6 9 -15 15 -21 12 -11 -7 -12
35 -2 61 7 19 10 14 27 -61z m-52 20 c-3 -23 1 -40 12 -50 19 -19 21 -35 4
-35 -6 0 -9 3 -5 6 3 4 0 13 -8 21 -16 15 -21 93 -7 93 4 0 6 -16 4 -35z m-36
-2 c-10 -10 -19 5 -10 18 6 11 8 11 12 0 2 -7 1 -15 -2 -18z m824 -563 c0 -14
-67 -40 -103 -40 -41 0 -25 16 34 34 55 17 69 19 69 6z m-486 -82 l-8 -43 -7
44 c-9 47 -3 69 13 53 6 -6 7 -27 2 -54z m26 -38 c0 -5 -4 -10 -10 -10 -5 0
-10 5 -10 10 0 6 5 10 10 10 6 0 10 -4 10 -10z m20 -74 c14 1 44 5 68 9 59 11
54 -8 -10 -32 -52 -20 -53 -21 -65 -74 -10 -42 -12 -46 -10 -16 2 20 2 37 1
37 -2 0 -10 -8 -20 -17 -16 -16 -16 -16 -9 6 7 23 6 24 -41 17 -27 -3 -67 -13
-89 -21 -22 -8 -48 -14 -58 -15 -35 0 -7 17 70 44 110 39 122 46 115 65 -4 12
-3 14 9 5 8 -5 25 -9 39 -8z"/>
<path d="M4192 5388 c-7 -7 -18 -13 -25 -13 -6 0 -13 -9 -15 -19 -4 -18 -2
-17 27 3 17 12 33 26 36 31 9 14 -9 12 -23 -2z"/>
<path d="M4215 5310 c-3 -5 -1 -10 4 -10 6 0 11 5 11 10 0 6 -2 10 -4 10 -3 0
-8 -4 -11 -10z"/>
<path d="M271 4204 c0 -11 3 -14 6 -6 3 7 2 16 -1 19 -3 4 -6 -2 -5 -13z"/>
<path d="M1013 3609 c-25 -9 -29 -19 -12 -36 5 -5 17 -55 25 -109 15 -102 22
-132 23 -101 1 10 12 40 26 67 32 63 31 80 -5 108 -16 13 -27 29 -24 37 10 25
-9 43 -33 34z"/>
<path d="M1380 3555 c0 -28 4 -44 10 -40 6 3 10 21 10 40 0 19 -4 37 -10 40
-6 4 -10 -12 -10 -40z"/>
<path d="M740 3610 c0 -5 5 -10 11 -10 5 0 7 5 4 10 -3 6 -8 10 -11 10 -2 0
-4 -4 -4 -10z"/>
<path d="M5200 3580 c0 -5 5 -10 10 -10 6 0 10 5 10 10 0 6 -4 10 -10 10 -5 0
-10 -4 -10 -10z"/>
<path d="M4075 2360 c-3 -5 -1 -10 4 -10 6 0 11 5 11 10 0 6 -2 10 -4 10 -3 0
-8 -4 -11 -10z"/>
<path d="M4380 7251 c0 -8 70 -41 88 -41 3 0 -10 11 -30 25 -38 26 -58 31 -58
16z"/>
<path d="M888 7223 c7 -3 16 -2 19 1 4 3 -2 6 -13 5 -11 0 -14 -3 -6 -6z"/>
<path d="M268 7208 c-6 -16 2 -58 11 -58 3 0 11 12 18 26 11 23 10 24 -10 20
-12 -3 -16 -3 -9 0 6 3 12 10 12 15 0 13 -18 11 -22 -3z"/>
<path d="M307 7164 c-4 -10 -10 -25 -13 -33 -5 -10 -2 -12 10 -8 14 5 16 3 11
-12 -4 -14 0 -23 15 -31 23 -12 27 -40 5 -40 -8 0 -15 -9 -15 -21 0 -12 -4
-17 -11 -14 -6 4 -8 14 -4 24 4 11 -1 9 -14 -6 -12 -12 -20 -28 -19 -34 2 -6
-6 -13 -17 -14 -11 -1 -29 -6 -40 -10 -17 -6 -17 -5 3 9 12 10 22 22 22 27 0
5 -10 1 -22 -11 -12 -11 -25 -20 -29 -20 -4 0 5 -13 19 -29 15 -16 32 -35 38
-43 6 -8 38 -20 70 -27 33 -8 62 -18 67 -25 5 -8 10 -7 17 4 8 11 9 -10 4 -68
-6 -78 -5 -84 15 -98 11 -8 21 -19 21 -24 0 -15 53 -63 71 -64 9 -1 31 -13 48
-28 17 -16 35 -28 41 -28 25 0 24 96 -1 127 -9 10 -15 10 -25 2 -11 -9 -14 -8
-14 3 0 8 -12 19 -27 25 l-28 11 25 1 c35 2 45 11 47 45 3 36 11 45 24 26 9
-12 10 -12 5 3 -4 13 0 17 17 18 21 0 21 1 -3 10 -20 8 -22 12 -10 19 22 14
46 12 60 -5 7 -8 24 -14 38 -12 33 2 92 58 92 86 0 11 5 21 12 21 6 0 8 3 5 7
-4 3 0 14 9 24 10 11 12 19 5 24 -6 3 -11 1 -11 -4 0 -6 -4 -11 -10 -11 -19 0
-10 38 10 43 11 3 20 12 20 20 0 16 -27 30 -41 22 -5 -4 -6 1 -3 10 4 10 13
14 28 10 19 -6 19 -4 -4 14 -14 11 -33 21 -42 21 -9 0 -19 4 -23 9 -3 6 -20
17 -37 26 -35 17 -52 6 -44 -27 3 -12 -2 -18 -14 -18 -11 0 -20 -8 -22 -20 -2
-12 -6 -19 -9 -18 -3 2 -13 -3 -23 -11 -15 -12 -16 -12 -9 5 5 15 4 17 -8 8
-18 -14 -70 -24 -63 -12 3 5 -6 6 -20 2 -19 -5 -26 -2 -26 9 0 10 -6 13 -20
10 -15 -4 -19 -1 -15 9 7 16 -19 43 -33 34 -16 -9 -81 14 -76 27 2 7 -2 21 -9
31 -14 18 -14 18 -20 0z m419 -80 c-8 -8 -20 -14 -27 -14 -8 0 -5 7 7 19 10
10 22 16 27 14 4 -2 1 -11 -7 -19z m-451 -154 c3 -5 -1 -10 -10 -10 -9 0 -13
5 -10 10 3 6 8 10 10 10 2 0 7 -4 10 -10z"/>
<path d="M90 7086 c0 -9 5 -16 10 -16 6 0 10 4 10 9 0 6 -4 13 -10 16 -5 3
-10 -1 -10 -9z"/>
<path d="M156 7027 c3 -10 9 -15 12 -12 3 3 0 11 -7 18 -10 9 -11 8 -5 -6z"/>
<path d="M180 7000 c-13 -11 -19 -20 -13 -20 5 0 18 9 28 20 10 11 16 20 13
20 -3 0 -15 -9 -28 -20z"/>
<path d="M5460 6985 c0 -2 10 -10 23 -16 20 -11 21 -11 8 4 -13 16 -31 23 -31
12z"/>
<path d="M920 6850 c-14 -11 -20 -20 -14 -20 6 0 19 9 29 20 23 25 17 25 -15
0z"/>
<path d="M825 6841 c-7 -12 12 -24 25 -16 11 7 4 25 -10 25 -5 0 -11 -4 -15
-9z"/>
<path d="M803 6797 c9 -8 17 -20 17 -26 0 -7 5 -9 10 -6 13 8 4 22 -23 35 -20
10 -20 10 -4 -3z"/>
<path d="M720 6730 c0 -5 5 -10 10 -10 6 0 10 5 10 10 0 6 -4 10 -10 10 -5 0
-10 -4 -10 -10z"/>
<path d="M1025 6690 c-3 -5 -1 -10 4 -10 6 0 11 5 11 10 0 6 -2 10 -4 10 -3 0
-8 -4 -11 -10z"/>
<path d="M5120 6664 c0 -5 11 -30 24 -55 12 -26 26 -56 29 -68 3 -11 10 -21
16 -21 15 0 14 14 -3 53 -16 36 -66 106 -66 91z"/>
<path d="M1018 6653 c7 -3 16 -2 19 1 4 3 -2 6 -13 5 -11 0 -14 -3 -6 -6z"/>
<path d="M657 6634 c-4 -4 -7 -23 -7 -42 0 -25 5 -35 20 -39 11 -3 20 -10 20
-17 0 -6 4 -5 9 3 16 26 -23 114 -42 95z"/>
<path d="M253 6556 c-24 -5 -43 -13 -43 -18 0 -4 -10 -8 -23 -8 -12 0 -34 -8
-47 -17 l-25 -18 39 -6 c22 -3 62 -1 90 7 53 13 67 13 128 0 49 -11 114 9 97
30 -6 8 -21 14 -34 14 -12 0 -25 3 -28 6 -3 4 -21 8 -39 9 -18 1 -42 4 -53 7
-11 3 -39 0 -62 -6z"/>
<path d="M466 6561 c-4 -7 -5 -15 -2 -18 9 -9 19 4 14 18 -4 11 -6 11 -12 0z"/>
<path d="M570 6476 c7 -7 13 -7 20 0 6 6 3 10 -10 10 -13 0 -16 -4 -10 -10z"/>
<path d="M710 6398 c0 -12 7 -18 23 -17 15 0 17 2 7 6 -8 3 -18 11 -22 17 -5
7 -8 4 -8 -6z"/>
<path d="M405 6343 c-22 -10 -46 -23 -54 -30 -8 -8 -22 -11 -34 -7 -19 6 -20
5 -8 -9 7 -9 16 -15 20 -14 58 26 142 77 125 76 -5 0 -27 -7 -49 -16z"/>
<path d="M265 6290 c-16 -7 -17 -9 -3 -9 9 -1 18 -7 21 -13 2 -8 8 -9 13 -4 5
5 4 11 -4 13 -6 3 -10 9 -6 14 6 10 6 10 -21 -1z"/>
<path d="M238 6243 c7 -3 16 -2 19 1 4 3 -2 6 -13 5 -11 0 -14 -3 -6 -6z"/>
<path d="M5531 6105 c0 -21 27 -88 28 -70 0 6 -6 28 -14 50 -8 22 -14 31 -14
20z"/>
<path d="M4875 5925 c-29 -39 -86 -157 -79 -165 3 -2 9 2 14 10 7 11 10 12 10
2 0 -10 3 -10 15 2 8 8 15 20 15 26 0 6 4 9 9 6 10 -7 61 41 61 58 0 6 9 22
19 36 14 18 17 29 10 42 -15 28 -44 21 -74 -17z"/>
<path d="M388 5912 c-19 -4 -24 -37 -8 -47 6 -4 8 -10 5 -15 -9 -14 20 -27 45
-19 14 4 21 7 16 8 -6 1 0 11 13 22 12 12 19 25 14 29 -14 12 -67 26 -85 22z"/>
<path d="M5421 5854 c0 -11 3 -14 6 -6 3 7 2 16 -1 19 -3 4 -6 -2 -5 -13z"/>
<path d="M3230 5340 c0 -5 5 -10 10 -10 6 0 10 5 10 10 0 6 -4 10 -10 10 -5 0
-10 -4 -10 -10z"/>
<path d="M3290 5260 c-6 -11 -8 -20 -6 -20 3 0 10 9 16 20 6 11 8 20 6 20 -3
0 -10 -9 -16 -20z"/>
<path d="M3300 5233 c0 -6 8 -17 18 -24 16 -13 16 -13 2 6 -8 11 -16 22 -17
24 -2 2 -3 0 -3 -6z"/>
<path d="M5527 5176 c-5 -15 -6 -31 -3 -34 8 -8 18 25 14 45 -3 13 -6 10 -11
-11z"/>
<path d="M5507 5096 c-4 -10 -7 -26 -7 -37 0 -11 -9 -47 -21 -81 -14 -43 -17
-63 -9 -68 19 -12 25 -114 7 -141 -8 -13 -18 -48 -22 -76 -4 -29 -12 -56 -17
-59 -11 -7 -9 28 8 121 8 50 -8 37 -26 -20 -7 -22 -28 -61 -46 -86 -30 -41
-33 -52 -28 -90 3 -24 7 -49 9 -56 2 -6 -4 -33 -15 -60 -27 -72 -40 -135 -26
-130 6 2 12 12 14 23 2 10 8 29 14 41 6 12 20 50 32 85 12 35 26 62 31 61 6
-1 11 14 12 32 1 19 6 42 12 52 8 14 9 11 8 -18 -1 -21 -4 -36 -7 -34 -11 7
-3 -194 10 -237 12 -40 18 -47 44 -50 17 -2 44 -1 60 2 27 4 31 11 41 55 8 39
15 49 28 47 14 -2 13 3 -8 35 -50 77 -55 82 -72 76 -11 -4 -13 -8 -5 -11 14
-4 16 -42 3 -42 -16 0 -23 40 -10 56 6 8 9 18 5 21 -4 4 -11 1 -16 -7 -7 -11
-10 -7 -10 17 0 25 4 31 15 27 8 -4 15 -9 15 -13 0 -14 66 -45 124 -57 63 -14
270 -9 311 7 11 4 -9 5 -45 2 -55 -5 -72 -2 -105 16 -22 12 -58 26 -79 32 -44
12 -133 94 -161 150 -11 19 -20 65 -23 106 -2 40 -8 70 -13 68 -4 -3 -8 9 -8
27 0 61 -8 153 -16 173 -5 16 -5 17 4 5 9 -13 11 -13 10 0 0 8 -4 24 -8 34 -7
18 -8 18 -14 2z m-1 -132 c-3 -9 -6 -23 -6 -32 0 -12 -3 -13 -11 -5 -13 13 -3
53 13 53 5 0 7 -7 4 -16z m68 -381 c28 -31 43 -53 35 -49 -8 3 -22 9 -31 12
-10 4 -18 10 -18 15 0 5 -6 8 -12 7 -7 -2 -12 4 -10 13 1 9 -4 19 -13 23 -15
5 -22 36 -7 36 4 0 29 -26 56 -57z m-64 -163 c0 -13 -1 -13 -10 0 -5 8 -10 22
-10 30 0 13 1 13 10 0 5 -8 10 -22 10 -30z"/>
<path d="M3757 5092 c-3 -4 17 -8 45 -10 33 -2 48 0 43 7 -7 12 -81 15 -88 3z"/>
<path d="M4560 5059 c0 -5 5 -7 10 -4 6 3 10 8 10 11 0 2 -4 4 -10 4 -5 0 -10
-5 -10 -11z"/>
<path d="M4385 4955 l-40 -13 35 -1 c50 -1 85 9 68 20 -16 10 -13 11 -63 -6z"/>
<path d="M5451 4884 c0 -11 3 -14 6 -6 3 7 2 16 -1 19 -3 4 -6 -2 -5 -13z"/>
<path d="M3278 4813 c12 -2 32 -2 45 0 12 2 2 4 -23 4 -25 0 -35 -2 -22 -4z"/>
<path d="M6405 4776 c-62 -33 -96 -77 -97 -125 -1 -17 -6 -31 -11 -31 -6 0 -8
-3 -4 -6 6 -6 157 145 157 157 0 13 -25 15 -45 5z"/>
<path d="M4325 4728 c4 -13 11 -27 16 -33 5 -5 4 5 -2 23 -12 36 -24 44 -14
10z"/>
<path d="M6680 4625 c0 -9 30 -65 35 -65 7 0 -16 60 -26 66 -5 3 -9 2 -9 -1z"/>
<path d="M4801 4523 c1 -17 3 -21 6 -10 5 20 14 22 31 5 7 -7 12 -8 12 -2 0
14 -22 34 -37 34 -8 0 -13 -11 -12 -27z"/>
<path d="M6360 4508 c-5 -18 -8 -29 -9 -39 0 -6 -10 -9 -21 -6 -53 14 -71 -85
-24 -128 15 -14 24 -25 19 -25 -4 0 3 -8 15 -18 22 -18 22 -22 11 -66 -14 -57
-5 -91 54 -195 l13 -23 7 32 c12 53 -6 389 -20 398 -7 4 -20 23 -28 42 -9 19
-16 32 -17 28z"/>
<path d="M4038 4483 c7 -3 16 -2 19 1 4 3 -2 6 -13 5 -11 0 -14 -3 -6 -6z"/>
<path d="M6126 4475 c-9 -26 -7 -32 5 -12 6 10 9 21 6 23 -2 3 -7 -2 -11 -11z"/>
<path d="M6707 4483 c-10 -9 -7 -104 3 -128 6 -14 9 5 9 58 1 77 0 83 -12 70z"/>
<path d="M4115 4447 c10 -15 20 -25 23 -22 3 3 -5 16 -17 28 l-23 22 17 -28z"/>
<path d="M6090 4455 c0 -5 5 -17 10 -25 5 -8 10 -10 10 -5 0 6 -5 17 -10 25
-5 8 -10 11 -10 5z"/>
<path d="M6005 4429 c-16 -10 -38 -19 -47 -19 -9 0 -23 -6 -30 -13 -7 -7 -22
-12 -33 -13 -15 0 -20 -6 -18 -24 1 -14 -1 -19 -3 -12 -3 6 -10 10 -15 6 -14
-8 -11 -40 5 -53 8 -7 19 -26 25 -42 10 -28 9 -30 -12 -24 -15 4 -18 3 -8 -3
10 -7 10 -11 1 -17 -7 -4 -16 -2 -20 5 -5 8 -11 1 -19 -21 -9 -25 -14 -30 -23
-21 -19 19 -24 15 -48 -29 -25 -50 -43 -132 -26 -122 27 16 81 59 85 67 2 5
31 38 66 75 109 116 132 146 128 161 -3 11 -2 12 4 2 7 -9 18 -2 42 28 17 22
29 40 24 40 -4 0 -16 -11 -28 -26 l-20 -25 0 24 c0 14 3 23 7 21 8 -5 48 17
48 26 0 3 -9 6 -20 7 -11 1 -20 -2 -20 -8 0 -5 -7 -9 -17 -9 -14 0 -14 2 2 20
23 25 9 25 -30 -1z m-124 -242 l-23 -22 17 28 c10 15 20 25 23 22 3 -3 -5 -16
-17 -28z"/>
<path d="M5392 4337 c1 -22 10 -45 20 -54 30 -27 31 -8 4 44 l-26 48 2 -38z"/>
<path d="M2890 4310 c8 -5 24 -9 35 -9 l20 0 -20 9 c-11 5 -27 9 -35 9 -13 1
-13 0 0 -9z"/>
<path d="M6150 4271 c-19 -17 -32 -30 -28 -31 4 0 14 7 22 16 9 8 16 11 16 6
0 -6 -25 -24 -55 -41 -52 -29 -74 -51 -39 -37 8 3 12 2 9 -4 -3 -6 -1 -10 4
-10 6 0 11 7 11 15 0 19 34 20 49 1 6 -7 9 -22 6 -32 -3 -11 8 9 25 43 20 43
27 69 22 83 -7 20 -9 19 -42 -9z m27 -23 c-3 -7 -5 -2 -5 12 0 14 2 19 5 13 2
-7 2 -19 0 -25z m-7 -39 c0 -5 -4 -9 -10 -9 -5 0 -10 7 -10 16 0 8 5 12 10 9
6 -3 10 -10 10 -16z"/>
<path d="M5334 4245 c-7 -17 47 -177 88 -261 24 -49 41 -70 65 -82 18 -9 35
-13 38 -11 9 9 25 110 25 155 0 29 5 46 16 52 11 6 0 12 -41 21 -62 14 -115
53 -135 100 -13 31 -48 48 -56 26z"/>
<path d="M5505 4225 c40 -19 65 -18 65 0 0 11 -12 15 -47 14 l-48 -1 30 -13z"/>
<path d="M6110 4170 c0 -5 5 -10 10 -10 6 0 10 5 10 10 0 6 -4 10 -10 10 -5 0
-10 -4 -10 -10z"/>
<path d="M3710 4158 l-35 -12 50 -6 c28 -4 68 -14 90 -22 22 -9 54 -19 70 -22
22 -4 15 2 -25 22 l-55 26 50 7 50 6 -51 1 c-28 1 -64 4 -80 6 -16 3 -45 0
-64 -6z"/>
<path d="M4006 4112 c125 -76 106 -113 -26 -52 -92 43 -38 2 67 -50 44 -22 83
-40 86 -40 2 0 5 27 6 59 2 59 1 60 -26 59 -16 -1 -60 15 -99 36 -98 50 -102
45 -8 -12z"/>
<path d="M5605 4110 c-3 -6 1 -7 9 -4 18 7 21 14 7 14 -6 0 -13 -4 -16 -10z"/>
<path d="M5815 4030 c3 -6 -5 -10 -18 -10 -55 0 -81 -19 -114 -81 -24 -46 -27
-59 -15 -54 44 17 245 75 260 75 15 0 15 2 2 10 -13 9 -13 10 0 11 8 0 0 5
-18 10 -25 8 -38 6 -55 -6 -12 -8 -26 -15 -32 -15 -5 0 -2 5 8 11 9 5 17 15
17 20 0 6 -4 7 -10 4 -5 -3 -7 0 -4 8 3 8 -2 17 -11 21 -9 3 -13 2 -10 -4z
m82 -56 c-3 -3 -12 -4 -19 -1 -8 3 -5 6 6 6 11 1 17 -2 13 -5z"/>
<path d="M5880 4020 c0 -5 5 -10 10 -10 6 0 10 5 10 10 0 6 -4 10 -10 10 -5 0
-10 -4 -10 -10z"/>
<path d="M6658 3933 c7 -3 16 -2 19 1 4 3 -2 6 -13 5 -11 0 -14 -3 -6 -6z"/>
<path d="M6670 3880 c-9 -6 -10 -10 -3 -10 6 0 15 5 18 10 8 12 4 12 -15 0z"/>
<path d="M6383 3849 c-28 -10 -29 -23 -2 -60 13 -19 29 -29 45 -29 14 0 22 4
19 10 -4 6 1 7 11 3 13 -5 16 -3 11 10 -4 10 -2 14 6 11 15 -5 64 43 54 53 -4
3 -7 2 -7 -4 0 -6 -11 -18 -25 -27 -23 -15 -26 -15 -57 13 -26 22 -38 27 -55
20z"/>
<path d="M5807 3820 c-43 -8 -57 -18 -38 -29 10 -6 9 -10 -4 -15 -16 -6 -16
-8 -1 -31 9 -13 16 -33 16 -45 0 -11 5 -20 10 -20 6 0 10 -6 10 -13 0 -18 24
-67 33 -67 4 0 7 -10 8 -22 3 -60 17 33 18 115 1 49 5 97 11 107 12 22 -8 29
-63 20z"/>
<path d="M5910 3821 c0 -9 37 -30 55 -31 l20 -1 -20 -9 c-11 -5 -14 -9 -7 -9
7 -1 10 -5 7 -11 -3 -5 -1 -19 6 -32 11 -21 12 -21 25 -3 12 17 14 17 14 2 0
-26 17 -20 22 8 3 14 0 25 -6 26 -6 0 -2 4 9 9 19 8 19 9 1 9 -16 1 -17 4 -8
13 21 21 13 26 -53 30 -36 1 -65 1 -65 -1z"/>
<path d="M2800 3696 c0 -17 32 -15 38 2 2 7 -6 12 -17 12 -12 0 -21 -6 -21
-14z"/>
<path d="M6137 3538 c3 -40 7 -74 8 -76 2 -2 48 2 104 9 55 7 98 15 96 18 -3
2 0 10 5 16 8 9 3 12 -21 9 -17 -2 -38 1 -48 7 -13 8 -11 9 12 6 15 -2 27 0
27 7 0 6 5 4 11 -4 7 -10 9 -11 7 -2 -2 8 -7 13 -11 12 -4 0 -19 8 -34 20 -14
11 -35 20 -47 20 -11 1 -32 7 -46 15 -14 8 -35 14 -47 15 -21 0 -22 -3 -16
-72z m137 23 c4 -5 -3 -7 -14 -4 -23 6 -26 13 -6 13 8 0 17 -4 20 -9z"/>
<path d="M6 3553 c-3 -3 -6 -16 -5 -27 0 -15 2 -17 6 -6 3 8 10 18 16 21 6 4
6 9 -1 12 -5 4 -12 4 -16 0z"/>
<path d="M6053 3435 c-10 -43 -9 -51 5 -61 10 -7 18 -11 19 -10 2 1 -1 29 -5
62 l-7 59 -12 -50z"/>
<path d="M6169 3423 c-20 -3 -28 -11 -33 -35 -12 -60 -8 -78 23 -91 15 -7 29
-16 29 -22 1 -5 14 -13 30 -16 24 -5 29 -3 25 11 -2 9 2 34 10 57 12 34 12 40
1 36 -8 -3 -14 0 -14 5 0 6 -8 13 -17 16 -10 2 -1 2 20 -1 40 -6 54 12 15 20
-22 4 -22 4 2 6 14 1 32 6 40 11 15 10 -74 12 -131 3z"/>
<path d="M6032 3358 c5 -15 28 -23 28 -10 0 5 -7 13 -16 16 -10 4 -14 1 -12
-6z"/>
<path d="M6091 3344 c0 -11 3 -14 6 -6 3 7 2 16 -1 19 -3 4 -6 -2 -5 -13z"/>
<path d="M6050 3320 c0 -5 7 -10 15 -10 8 0 15 5 15 10 0 6 -7 10 -15 10 -8 0
-15 -4 -15 -10z"/>
<path d="M5038 3024 c-10 -9 3 -42 18 -48 11 -4 14 2 12 24 -2 27 -16 39 -30
24z"/>
<path d="M5080 3010 c0 -11 4 -20 9 -20 5 0 7 9 4 20 -3 11 -7 20 -9 20 -2 0
-4 -9 -4 -20z"/>
<path d="M2870 2983 c-70 -5 -86 -11 -104 -38 -13 -19 -13 -23 -2 -19 8 3 17
-2 20 -14 5 -16 19 -20 76 -26 62 -5 72 -4 104 18 l36 24 -28 18 c-15 9 -31
23 -35 31 -4 7 -11 12 -15 11 -4 -1 -27 -3 -52 -5z"/>
<path d="M2095 2960 c-3 -5 -1 -10 4 -10 6 0 11 5 11 10 0 6 -2 10 -4 10 -3 0
-8 -4 -11 -10z"/>
<path d="M3950 2959 c0 -5 5 -7 10 -4 6 3 10 8 10 11 0 2 -4 4 -10 4 -5 0 -10
-5 -10 -11z"/>
<path d="M3116 2935 c-3 -8 -11 -15 -19 -15 -12 0 -57 -43 -57 -55 0 -9 43 19
67 44 13 13 23 28 23 32 0 14 -7 10 -14 -6z"/>
<path d="M3040 2930 c0 -5 5 -10 10 -10 6 0 10 5 10 10 0 6 -4 10 -10 10 -5 0
-10 -4 -10 -10z"/>
<path d="M5940 2856 c0 -2 8 -10 18 -17 15 -13 16 -12 3 4 -13 16 -21 21 -21
13z"/>
<path d="M5940 2810 c8 -5 20 -10 25 -10 6 0 3 5 -5 10 -8 5 -19 10 -25 10 -5
0 -3 -5 5 -10z"/>
<path d="M3910 2786 c0 -8 5 -18 10 -21 6 -3 10 1 10 9 0 8 -4 18 -10 21 -5 3
-10 -1 -10 -9z"/>
<path d="M2495 2662 c-15 -10 -36 -121 -41 -210 -2 -53 1 -82 11 -103 9 -16
16 -32 16 -36 2 -9 35 -53 40 -53 7 0 2 155 -5 188 -5 20 -1 62 9 111 10 44
15 87 12 95 -7 17 -25 20 -42 8z"/>
<path d="M3845 2660 c-3 -5 -1 -10 4 -10 6 0 11 5 11 10 0 6 -2 10 -4 10 -3 0
-8 -4 -11 -10z"/>
<path d="M6012 2610 c0 -14 2 -19 5 -12 2 6 2 18 0 25 -3 6 -5 1 -5 -13z"/>
<path d="M6041 2604 c0 -11 3 -14 6 -6 3 7 2 16 -1 19 -3 4 -6 -2 -5 -13z"/>
<path d="M452 2581 c1 -18 8 -31 16 -31 17 0 12 52 -6 58 -8 3 -12 -6 -10 -27z"/>
<path d="M1055 2600 c-3 -5 1 -10 9 -10 8 0 18 5 21 10 3 6 -1 10 -9 10 -8 0
-18 -4 -21 -10z"/>
<path d="M3625 2582 c-26 -4 -27 -5 -10 -12 16 -5 9 -10 -35 -25 -30 -10 -61
-24 -68 -32 -23 -22 -45 -30 -92 -32 -25 -1 -63 -5 -85 -9 l-40 -7 0 -92 c0
-50 -3 -95 -7 -99 -5 -4 -8 -17 -8 -29 0 -11 -5 -26 -11 -32 -9 -9 -9 -27 -2
-65 11 -59 6 -151 -8 -142 -12 7 -11 61 1 69 6 3 10 14 10 23 0 13 -2 13 -16
-4 -15 -19 -16 -19 -9 1 4 11 9 26 12 33 3 6 0 12 -6 12 -6 0 -11 -6 -12 -12
-5 -93 -4 -178 3 -178 4 0 5 12 2 26 -5 18 -3 25 4 20 17 -10 41 4 35 21 -4
11 -2 14 5 9 7 -4 27 0 46 9 18 9 56 23 82 30 27 8 87 28 134 44 64 23 78 30
55 31 -27 1 -28 2 -8 10 12 5 24 19 28 32 4 13 14 31 23 41 16 18 3 24 -14 7
-7 -7 -29 6 -68 43 -48 46 -53 54 -31 50 23 -5 25 -3 25 36 0 42 5 46 52 42
19 -2 68 44 68 64 0 9 -9 15 -22 15 -20 0 -20 1 -5 18 10 10 17 25 17 33 0 20
20 39 42 39 10 0 18 4 18 10 0 9 -40 10 -105 2z m-268 -204 c-3 -8 -6 -5 -6 6
-1 11 2 17 5 13 3 -3 4 -12 1 -19z m-40 -50 c-3 -8 -6 -5 -6 6 -1 11 2 17 5
13 3 -3 4 -12 1 -19z m24 -19 c-5 -13 -10 -19 -10 -12 -1 15 10 45 15 40 3 -2
0 -15 -5 -28z m263 -85 c7 -19 -2 -37 -15 -29 -12 8 -12 45 0 45 5 0 12 -7 15
-16z m1 -54 c3 -6 -1 -7 -9 -4 -18 7 -21 14 -7 14 6 0 13 -4 16 -10z m-78 -23
c-22 -5 -42 -6 -47 -1 -5 5 11 10 38 10 l47 1 -38 -10z m22 -21 c-14 -7 -36
-15 -50 -18 -13 -3 -32 -9 -41 -13 -11 -4 -18 -3 -18 3 0 6 17 14 38 17 20 3
44 10 52 15 8 5 22 9 30 9 8 1 3 -5 -11 -13z m-142 -52 c-3 -3 -12 -4 -19 -1
-8 3 -5 6 6 6 11 1 17 -2 13 -5z m-77 -23 c-13 -11 -28 -17 -33 -14 -11 6 23
32 43 32 10 1 7 -6 -10 -18z"/>
<path d="M3770 2537 c0 -14 5 -29 10 -32 7 -4 8 3 4 22 -9 38 -14 42 -14 10z"/>
<path d="M3801 2544 c0 -11 3 -14 6 -6 3 7 2 16 -1 19 -3 4 -6 -2 -5 -13z"/>
<path d="M485 2482 c6 -99 17 -153 31 -159 9 -3 12 -13 8 -29 -5 -18 -2 -24 9
-24 9 0 18 -8 21 -17 3 -10 3 2 0 27 l-5 45 16 -34 c8 -19 18 -31 21 -28 8 8
-18 67 -30 67 -4 0 -5 7 -2 16 3 9 -1 25 -9 37 -14 21 -15 20 -16 -18 0 -31
-2 -36 -9 -20 -5 11 -6 44 -3 74 4 46 3 53 -11 48 -9 -4 -16 -2 -16 3 0 6 5
10 11 10 6 0 8 9 4 23 -15 47 -24 37 -20 -21z"/>
<path d="M6011 2524 c0 -11 3 -14 6 -6 3 7 2 16 -1 19 -3 4 -6 -2 -5 -13z"/>
<path d="M450 2511 c0 -12 5 -21 10 -21 6 0 10 6 10 14 0 8 -4 18 -10 21 -5 3
-10 -3 -10 -14z"/>
<path d="M3050 2522 c0 -9 -104 -150 -145 -196 -14 -16 -25 -32 -25 -37 0 -18
-117 -87 -165 -96 l-50 -11 48 -1 c26 0 47 -5 47 -11 0 -20 21 -9 30 15 5 14
14 25 19 25 5 0 17 3 27 7 12 4 15 3 10 -5 -4 -7 -16 -12 -27 -12 -16 0 -19
-6 -16 -49 1 -27 6 -47 11 -44 4 3 6 20 3 38 -4 27 -2 34 15 38 11 3 22 15 25
26 3 12 8 21 12 21 19 0 60 51 76 95 10 28 42 85 72 128 29 42 49 77 43 77 -5
0 -10 -4 -10 -8z"/>
<path d="M3070 2444 c-22 -48 -40 -90 -40 -94 0 -3 -22 -39 -49 -78 -28 -40
-67 -102 -87 -140 -44 -80 -87 -135 -118 -152 -19 -10 -31 -8 -74 10 l-50 22
-48 -28 c-27 -16 -78 -56 -116 -89 -79 -71 -198 -155 -221 -155 -18 0 -60 -63
-55 -85 2 -11 24 -1 88 40 46 31 93 63 104 73 11 9 16 11 12 5 -5 -10 -1 -11
16 -4 13 4 23 14 23 21 0 7 8 14 19 16 10 1 23 7 29 13 6 6 22 11 37 10 l25
-1 -25 -7 c-16 -5 -24 -13 -22 -25 2 -13 -2 -17 -20 -14 -15 2 -22 -2 -20 -10
1 -8 -2 -11 -9 -6 -7 4 -18 -1 -25 -10 -6 -10 -26 -18 -43 -18 -29 -1 -30 -2
-15 -19 14 -16 14 -18 -5 -29 -12 -6 -25 -8 -30 -5 -20 12 -39 -7 -36 -36 3
-24 2 -27 -9 -16 -10 8 -11 16 -4 25 17 21 -7 14 -27 -8 -10 -11 -22 -20 -27
-20 -5 0 -23 -13 -41 -30 -18 -16 -35 -30 -39 -30 -5 0 -8 -4 -8 -10 0 -5 9
-10 20 -10 11 0 20 -6 20 -14 0 -8 6 -17 13 -19 10 -4 10 -6 0 -6 -7 -1 -13
-5 -13 -9 0 -11 78 -13 85 -1 4 5 -6 9 -21 9 -15 0 -25 2 -23 4 8 6 73 16 66
10 -3 -4 7 -18 23 -32 17 -15 30 -34 30 -44 0 -17 -2 -16 -20 2 -13 13 -33 20
-60 20 -22 0 -43 1 -47 3 -5 1 -20 -23 -35 -53 -21 -44 -27 -74 -31 -149 -4
-91 -4 -95 21 -118 33 -30 63 -29 96 3 31 32 66 138 66 200 0 31 6 50 20 64
27 27 25 44 -5 60 -23 12 -34 30 -19 30 8 0 68 -42 75 -53 4 -5 9 -4 13 2 4 6
2 11 -3 11 -6 0 -11 7 -11 15 0 8 5 15 10 15 6 0 10 -5 10 -11 0 -5 19 0 43
12 23 12 49 25 57 29 8 4 14 15 14 24 -1 9 2 13 7 10 5 -3 9 1 10 8 0 7 4 4 9
-7 5 -11 9 -14 9 -7 1 19 31 47 76 71 45 24 55 26 55 10 0 -6 10 -20 23 -31
12 -11 15 -16 7 -12 -8 5 -3 -7 13 -25 24 -29 31 -44 29 -62 -1 -4 8 -5 19 -2
14 4 30 -5 55 -31 53 -55 144 -94 144 -62 0 21 69 33 81 15 6 -9 3 -18 -8 -26
-15 -12 -14 -13 8 -13 13 0 33 -7 43 -15 11 -8 30 -15 43 -15 13 0 23 -4 23
-10 0 -14 13 -12 36 6 12 10 14 14 4 11 -12 -4 -15 4 -15 34 0 27 -3 38 -12
35 -7 -3 -10 1 -6 11 4 9 -1 19 -11 25 -13 7 -16 20 -13 56 3 26 2 35 0 20 -2
-16 -9 -28 -14 -28 -7 0 -8 12 -3 33 7 30 9 149 3 192 -1 11 1 36 4 55 4 22 4
28 -1 15 -6 -13 -11 19 -15 94 -4 73 -2 122 5 140 6 14 11 29 10 33 -1 4 5 26
13 49 9 24 25 79 36 123 28 115 21 161 -39 226 -25 27 -52 50 -59 50 -7 0 -31
-39 -53 -86z m72 -259 c-3 -18 -11 -25 -28 -25 -22 0 -23 -2 -12 -25 6 -14 15
-25 20 -25 4 0 8 -9 8 -21 0 -11 -4 -18 -9 -15 -5 3 -12 -16 -16 -42 -4 -26
-9 -42 -12 -36 -2 6 0 30 5 52 8 35 7 44 -9 58 -14 13 -22 14 -32 5 -8 -6 -17
-8 -20 -4 -4 3 -7 2 -7 -4 0 -18 12 -22 31 -10 10 6 20 9 22 7 8 -9 -5 -80
-15 -80 -5 0 -7 13 -3 30 4 19 3 30 -4 30 -6 0 -11 -6 -11 -12 0 -7 -5 -5 -11
5 -16 27 -32 21 -24 -10 5 -22 4 -24 -7 -15 -8 6 -24 9 -35 6 -12 -3 -30 -1
-40 5 -17 10 -17 10 0 11 9 0 17 4 17 8 0 4 15 14 34 20 19 7 60 37 91 67 32
30 61 52 65 50 4 -3 5 -16 2 -30z m-202 -165 c6 -11 15 -18 20 -15 4 3 6 -3 3
-13 -2 -10 -19 -24 -37 -30 -42 -15 -46 -15 -46 3 0 8 -5 15 -11 15 -6 0 -9
-7 -5 -15 4 -12 0 -14 -19 -9 -13 3 -34 2 -47 -2 -21 -8 -20 -9 12 -15 l35 -6
-32 -2 c-21 -1 -41 -10 -57 -28 -22 -23 -26 -25 -32 -10 -3 9 -16 17 -28 18
-14 0 -16 2 -6 6 8 2 43 17 76 33 46 21 63 35 68 54 3 14 11 26 17 26 6 0 8
-10 5 -22 -3 -13 -3 -17 0 -10 3 6 10 10 14 7 5 -3 12 0 16 6 4 8 3 9 -4 5 -7
-4 -12 -1 -12 8 0 25 57 21 70 -4z m127 -42 c-3 -8 -6 -5 -6 6 -1 11 2 17 5
13 3 -3 4 -12 1 -19z m78 -55 c3 -36 1 -42 -5 -23 -10 30 -12 86 -4 77 4 -3 8
-28 9 -54z m-67 -28 c0 -16 -2 -15 -8 5 -11 34 -11 60 0 35 5 -11 8 -29 8 -40z
m-428 -4 c-23 -6 -23 -8 -6 -14 10 -4 16 -10 13 -13 -3 -3 -15 1 -27 9 -23 16
-13 26 25 25 15 0 14 -2 -5 -7z m50 -11 c0 -5 -7 -10 -16 -10 -8 0 -12 5 -9
10 3 6 10 10 16 10 5 0 9 -4 9 -10z m347 -27 c-3 -10 -5 -4 -5 12 0 17 2 24 5
18 2 -7 2 -21 0 -30z m-432 7 c-3 -5 -1 -10 6 -10 7 0 10 -2 8 -5 -3 -2 -16
-1 -29 2 -22 6 -23 7 -4 14 26 10 26 10 19 -1z m-51 -8 c3 -5 -1 -9 -9 -9 -8
0 -12 4 -9 9 3 4 7 8 9 8 2 0 6 -4 9 -8z m-95 -15 c-2 -1 -15 -11 -29 -22
l-25 -20 19 23 c11 12 24 22 29 22 6 0 8 -1 6 -3z m631 -1 c0 -3 -4 -8 -10
-11 -5 -3 -10 -1 -10 4 0 6 5 11 10 11 6 0 10 -2 10 -4z m53 -57 c-8 -29 -13
-23 -13 14 0 22 3 28 9 18 5 -7 6 -22 4 -32z m-673 -59 c0 -5 -4 -10 -10 -10
-5 0 -10 5 -10 10 0 6 5 10 10 10 6 0 10 -4 10 -10z m130 -20 c0 -13 -20 -13
-40 0 -12 8 -9 10 13 10 15 0 27 -4 27 -10z m560 -35 c0 -5 -5 -3 -10 5 -5 8
-10 20 -10 25 0 6 5 3 10 -5 5 -8 10 -19 10 -25z m-873 -43 c10 -17 8 -19 -18
-19 -19 0 -25 3 -17 9 7 4 9 8 5 8 -10 0 1 20 11 20 4 0 12 -8 19 -18z m138 8
c18 -8 17 -9 -7 -9 -16 -1 -28 4 -28 9 0 12 8 12 35 0z m712 -57 c-3 -10 -5
-4 -5 12 0 17 2 24 5 18 2 -7 2 -21 0 -30z m-234 6 c-6 -22 -39 -44 -47 -31
-11 18 6 47 28 48 19 1 22 -2 19 -17z m92 -78 c3 -11 12 -22 20 -25 19 -7 19
-36 1 -36 -8 0 -21 -3 -30 -6 -13 -5 -16 2 -16 40 0 47 14 62 25 27z m-58 -46
c8 -9 13 -18 11 -21 -3 -2 -13 5 -23 16 -21 23 -11 27 12 5z m-653 -77 c15
-74 -2 -164 -35 -194 -17 -15 -20 -14 -43 11 -32 35 -33 56 -1 104 14 20 30
52 35 70 8 30 7 33 -10 28 -21 -5 -28 9 -8 15 30 10 56 -5 62 -34z"/>
<path d="M3116 2185 c-3 -8 -1 -15 4 -15 6 0 10 7 10 15 0 8 -2 15 -4 15 -2 0
-6 -7 -10 -15z"/>
<path d="M6396 2507 c-6 -25 18 -199 30 -219 14 -22 24 44 18 117 -8 104 -34
158 -48 102z"/>
<path d="M2080 2500 c1 -8 8 -26 16 -40 l15 -25 -6 30 c-7 33 -25 59 -25 35z"/>
<path d="M1726 2485 c-3 -9 -6 -22 -5 -28 0 -7 5 -1 10 12 5 13 8 26 5 28 -2
2 -6 -3 -10 -12z"/>
<path d="M3690 2465 c0 -8 5 -15 10 -15 6 0 10 7 10 15 0 8 -4 15 -10 15 -5 0
-10 -7 -10 -15z"/>
<path d="M3728 2433 c7 -3 16 -2 19 1 4 3 -2 6 -13 5 -11 0 -14 -3 -6 -6z"/>
<path d="M175 2410 c3 -5 8 -10 11 -10 2 0 4 5 4 10 0 6 -5 10 -11 10 -5 0 -7
-4 -4 -10z"/>
<path d="M3930 2404 c0 -8 5 -12 10 -9 6 3 10 10 10 16 0 5 -4 9 -10 9 -5 0
-10 -7 -10 -16z"/>
<path d="M143 2395 c-3 -9 -3 -19 1 -22 3 -4 6 1 6 11 0 10 5 14 12 10 7 -4 8
-3 4 4 -10 16 -15 15 -23 -3z"/>
<path d="M1943 2397 c1 -6 -5 -11 -13 -12 -39 -1 -59 -22 -107 -108 -84 -149
-113 -219 -107 -258 2 -20 -1 -40 -8 -49 -16 -20 -92 -45 -107 -36 -6 4 -11 2
-11 -4 0 -6 -6 -10 -12 -9 -19 3 -68 -23 -62 -32 3 -5 -3 -6 -12 -2 -14 5 -16
2 -12 -14 4 -16 1 -19 -12 -16 -10 3 -39 -7 -65 -22 -26 -14 -50 -24 -52 -21
-15 14 156 159 242 206 64 35 95 58 60 46 -72 -25 -179 -101 -284 -202 -64
-60 -150 -136 -192 -167 -78 -58 -109 -87 -92 -87 15 0 174 119 216 162 39 39
64 54 32 18 -24 -27 -16 -32 50 -35 47 -1 55 1 55 16 0 10 9 23 20 29 16 8 20
8 20 -3 0 -8 -9 -24 -20 -37 -11 -13 -20 -36 -20 -51 0 -15 -20 -66 -45 -113
-25 -48 -45 -93 -45 -101 0 -8 -5 -15 -11 -15 -8 0 -9 -11 -5 -31 3 -18 2 -37
-3 -43 -12 -16 -21 -56 -12 -56 26 0 111 150 157 275 20 55 41 103 46 106 5 3
8 12 7 20 -4 25 13 69 30 78 9 5 38 8 64 7 28 -2 42 1 35 6 -8 4 -9 8 -2 8 6
0 35 -22 64 -50 29 -27 56 -50 60 -50 4 0 12 -11 18 -24 9 -19 8 -27 -4 -36
-22 -19 -17 -28 16 -24 17 2 30 2 30 1 0 -2 -11 -30 -24 -63 -13 -32 -27 -78
-31 -101 -4 -24 -11 -43 -17 -43 -13 0 -3 56 22 128 10 28 15 52 10 52 -4 0
-10 -10 -13 -22 -19 -79 -54 -186 -68 -206 -9 -12 -22 -21 -30 -19 -8 2 -11 2
-7 0 11 -7 -3 -34 -34 -63 -15 -15 -28 -33 -28 -40 0 -7 -6 -10 -13 -7 -11 4
-12 -3 -6 -36 4 -23 5 -46 2 -51 -4 -5 -1 -6 6 -1 8 4 10 17 6 32 -4 18 -2 24
7 21 7 -3 26 13 41 36 22 31 27 35 22 16 -4 -14 -15 -38 -24 -55 -9 -16 -25
-51 -35 -78 -10 -28 -22 -44 -28 -41 -6 4 -8 2 -5 -3 4 -6 -9 -43 -28 -82 -19
-39 -35 -74 -35 -79 0 -5 -9 -17 -20 -27 -11 -10 -20 -25 -20 -33 0 -9 -14
-40 -31 -70 -17 -30 -28 -61 -25 -68 3 -9 -3 -18 -17 -23 -24 -10 -104 -157
-99 -183 2 -11 -141 -140 -240 -216 -89 -69 -126 -102 -112 -102 3 0 19 11 36
25 16 14 36 25 43 25 8 0 20 8 27 19 7 10 40 40 73 67 33 26 87 72 120 102 33
30 70 63 81 73 49 42 196 326 243 465 17 51 45 125 61 165 17 41 38 92 47 114
9 22 42 72 74 111 31 39 69 90 83 112 14 23 37 49 51 58 14 9 23 19 20 22 -2
3 0 11 6 19 12 14 10 15 -36 17 -22 1 -27 30 -12 77 6 21 12 25 37 21 42 -6
46 -19 10 -37 -16 -8 -30 -17 -30 -18 0 -1 39 -2 87 -2 85 0 88 -1 87 -22 0
-13 0 -23 2 -23 5 0 74 101 77 112 3 16 23 38 34 38 4 0 24 13 44 28 l37 28
-19 39 c-11 21 -17 47 -14 56 5 14 1 16 -15 12 -21 -6 -29 12 -8 19 20 7 -22
46 -43 41 -24 -7 -25 -23 -2 -23 14 0 14 -3 5 -12 -10 -10 -15 -10 -22 2 -5 8
-10 23 -10 32 0 10 -10 20 -25 24 -30 7 -33 29 -5 44 21 11 27 44 10 55 -7 4
-9 -2 -4 -19 6 -26 -8 -36 -22 -15 -4 8 -9 7 -15 -2 -6 -10 -9 -7 -8 11 2 92
-32 246 -63 288 -14 19 -79 26 -75 9z m56 -41 c7 -8 8 -17 3 -19 -4 -3 -13 3
-20 14 -14 22 0 26 17 5z m12 -53 c-12 -20 -14 -14 -5 12 4 9 9 14 11 11 3 -2
0 -13 -6 -23z m10 -30 c-12 -20 -14 -14 -5 12 4 9 9 14 11 11 3 -2 0 -13 -6
-23z m2 -42 c-3 -10 0 -22 6 -25 6 -4 11 -13 11 -19 0 -7 -4 -6 -10 3 -9 13
-11 13 -20 0 -8 -11 -9 -7 -4 15 4 17 9 33 11 38 8 13 11 7 6 -12z m47 -38 c0
-3 -7 0 -15 7 -8 7 -15 22 -15 34 0 18 2 17 15 -8 8 -15 15 -31 15 -33z m-282
-109 c0 -17 -3 -22 -8 -13 -5 6 -6 18 -3 26 8 19 11 16 11 -13z m29 -6 c1 -26
-1 -29 -7 -13 -6 17 -3 45 5 45 1 0 2 -15 2 -32z m-65 -63 c3 -13 1 -22 -3
-19 -9 5 -13 44 -5 44 2 0 6 -11 8 -25z m208 -5 c0 -5 -5 -10 -11 -10 -5 0 -7
5 -4 10 3 6 8 10 11 10 2 0 4 -4 4 -10z m-81 -85 c0 -5 -4 -3 -9 5 -5 8 -9 22
-9 30 0 16 17 -16 18 -35z m-155 10 c3 -8 1 -15 -4 -15 -6 0 -10 7 -10 15 0 8
2 15 4 15 2 0 6 -7 10 -15z m449 -12 c-7 -2 -19 -2 -25 0 -7 3 -2 5 12 5 14 0
19 -2 13 -5z m-326 -45 c-3 -8 -6 -5 -6 6 -1 11 2 17 5 13 3 -3 4 -12 1 -19z
m47 -38 c-5 -5 -10 7 -10 28 -2 37 -2 37 8 9 6 -16 6 -33 2 -37z m353 28 c-3
-8 -6 -5 -6 6 -1 11 2 17 5 13 3 -3 4 -12 1 -19z m-78 -44 c17 -12 26 -13 34
-5 6 6 16 11 22 11 5 -1 -1 -10 -14 -20 -17 -15 -27 -17 -36 -10 -7 6 -21 8
-31 4 -16 -5 -16 -4 -4 5 13 10 13 12 0 21 -8 5 -10 10 -5 10 6 0 21 -7 34
-16z m-742 -20 c-3 -3 -12 -4 -19 -1 -8 3 -5 6 6 6 11 1 17 -2 13 -5z m452
-30 c0 11 4 17 7 13 3 -3 3 -15 -1 -28 -6 -17 -9 -19 -16 -8 -5 8 -8 25 -8 39
1 23 2 23 9 -5 5 -18 8 -23 9 -11z m-499 16 c0 -5 -5 -10 -11 -10 -5 0 -7 -5
-3 -12 4 -7 3 -8 -4 -4 -6 4 -9 13 -5 21 6 17 23 20 23 5z m490 -78 c0 -15 -2
-15 -11 -2 -9 12 -10 10 -5 -9 3 -17 2 -21 -6 -13 -12 12 -1 55 13 47 5 -4 9
-14 9 -23z m240 -32 c0 -5 -5 -10 -11 -10 -5 0 -7 5 -4 10 3 6 8 10 11 10 2 0
4 -4 4 -10z m-230 -60 c0 -14 -32 -94 -40 -100 -4 -3 -10 -12 -14 -20 -12 -29
5 45 21 88 14 38 33 57 33 32z"/>
<path d="M2165 2329 c-4 -6 -4 -13 -1 -16 3 -4 6 -1 6 6 0 9 9 12 25 9 13 -3
22 -1 19 3 -7 13 -42 11 -49 -2z"/>
<path d="M3691 2304 c0 -11 3 -14 6 -6 3 7 2 16 -1 19 -3 4 -6 -2 -5 -13z"/>
<path d="M2644 2296 c-3 -8 -12 -12 -19 -10 -16 7 -31 -16 -17 -25 15 -9 92
-1 92 10 0 5 -7 9 -15 9 -8 0 -15 7 -15 15 0 19 -19 20 -26 1z"/>
<path d="M6700 2303 c-8 -3 -21 -10 -27 -15 -18 -14 2 -48 27 -48 16 0 20 7
20 35 0 19 -1 35 -2 34 -2 0 -10 -3 -18 -6z"/>
<path d="M1798 2283 c-20 -23 -51 -84 -45 -89 2 -2 18 19 36 47 32 52 37 74 9
42z"/>
<path d="M2150 2291 c0 -5 5 -13 10 -16 6 -3 10 -2 10 4 0 5 -4 13 -10 16 -5
3 -10 2 -10 -4z"/>
<path d="M3678 2257 c-3 -19 -2 -25 4 -19 6 6 8 18 6 28 -3 14 -5 12 -10 -9z"/>
<path d="M2240 2260 c0 -5 5 -10 11 -10 5 0 7 -4 4 -10 -3 -5 -2 -10 4 -10 19
0 19 16 0 28 -11 7 -19 8 -19 2z"/>
<path d="M6441 2254 c0 -11 3 -14 6 -6 3 7 2 16 -1 19 -3 4 -6 -2 -5 -13z"/>
<path d="M321 2242 c-3 -36 -97 -219 -128 -250 -16 -17 -27 -57 -18 -71 3 -6
13 -11 21 -11 10 0 13 -6 10 -18 -5 -14 2 -23 26 -36 30 -15 42 -15 133 -2 77
11 89 14 50 15 -27 0 -70 -4 -95 -9 -50 -9 -95 5 -95 30 0 8 -4 18 -10 22 -6
5 -5 8 3 8 6 0 12 7 12 15 0 8 5 15 11 15 7 0 9 10 7 25 -3 13 -2 23 1 20 11
-6 84 218 78 240 -2 11 -5 14 -6 7z m-111 -291 c0 -11 -4 -23 -10 -26 -6 -4
-10 5 -10 19 0 14 5 26 10 26 6 0 10 -9 10 -19z"/>
<path d="M2295 2239 c-4 -6 -4 -13 0 -17 4 -4 10 -1 12 6 3 6 10 9 15 6 7 -4
8 -2 4 4 -9 15 -23 15 -31 1z"/>
<path d="M5780 2240 c8 -5 22 -9 30 -9 10 0 8 3 -5 9 -27 12 -43 12 -25 0z"/>
<path d="M2226 2227 c3 -10 9 -15 12 -12 3 3 0 11 -7 18 -10 9 -11 8 -5 -6z"/>
<path d="M6610 2223 c0 -13 5 -23 10 -23 13 0 13 11 0 30 -8 12 -10 11 -10 -7z"/>
<path d="M878 2223 c-10 -2 -18 -8 -18 -12 0 -9 110 -61 127 -61 5 0 23 -19
40 -42 72 -100 103 -117 103 -58 0 27 2 29 29 24 29 -6 107 25 83 34 -7 2 -19
-1 -27 -8 -22 -18 -106 -15 -117 5 -29 50 -73 86 -127 101 -77 23 -74 22 -93
17z m81 -29 c2 -2 2 -7 -1 -10 -4 -3 -19 2 -35 11 l-28 16 30 -6 c16 -4 32 -9
34 -11z m31 -14 c0 -5 -4 -10 -10 -10 -5 0 -10 5 -10 10 0 6 5 10 10 10 6 0
10 -4 10 -10z m130 -130 c0 -5 -4 -10 -10 -10 -5 0 -10 5 -10 10 0 6 5 10 10
10 6 0 10 -4 10 -10z"/>
<path d="M3850 2204 c-13 -13 -36 -24 -49 -24 -17 0 -22 -3 -15 -10 15 -15 53
1 83 34 31 33 15 33 -19 0z"/>
<path d="M600 2210 c0 -5 7 -10 16 -10 8 0 12 5 9 10 -3 6 -10 10 -16 10 -5 0
-9 -4 -9 -10z"/>
<path d="M6039 2199 c30 -10 56 -17 58 -15 5 5 -86 36 -101 35 -6 0 13 -9 43
-20z"/>
<path d="M580 2190 c0 -5 5 -10 11 -10 5 0 7 5 4 10 -3 6 -8 10 -11 10 -2 0
-4 -4 -4 -10z"/>
<path d="M3653 2183 c-3 -10 -8 -22 -10 -28 -3 -5 3 -1 11 9 16 20 21 36 11
36 -3 0 -8 -8 -12 -17z"/>
<path d="M3 2150 c0 -25 2 -35 4 -22 2 12 2 32 0 45 -2 12 -4 2 -4 -23z"/>
<path d="M2237 2174 c13 -35 63 -118 63 -106 0 7 -7 26 -15 41 -8 16 -11 31
-8 35 3 3 -4 15 -17 26 -28 24 -31 25 -23 4z"/>
<path d="M2605 2180 c-18 -8 -17 -9 8 -9 15 -1 27 4 27 9 0 12 -8 12 -35 0z"/>
<path d="M5998 2183 c7 -3 16 -2 19 1 4 3 -2 6 -13 5 -11 0 -14 -3 -6 -6z"/>
<path d="M6610 2174 c0 -8 5 -12 10 -9 6 4 8 11 5 16 -9 14 -15 11 -15 -7z"/>
<path d="M6048 2173 c7 -3 16 -2 19 1 4 3 -2 6 -13 5 -11 0 -14 -3 -6 -6z"/>
<path d="M1294 2148 c-16 -12 -31 -23 -33 -25 -2 -2 -2 -6 2 -9 3 -3 21 8 39
25 38 36 34 41 -8 9z"/>
<path d="M2611 2151 c-37 -19 -24 -35 16 -20 22 8 44 -8 56 -43 12 -34 36 -9
35 36 0 41 -1 42 -37 43 -20 1 -51 -7 -70 -16z"/>
<path d="M2835 2160 c3 -5 8 -10 11 -10 2 0 4 5 4 10 0 6 -5 10 -11 10 -5 0
-7 -4 -4 -10z"/>
<path d="M5986 2123 c-6 -14 -5 -15 5 -6 7 7 10 15 7 18 -3 3 -9 -2 -12 -12z"/>
<path d="M2420 2100 c0 -5 5 -10 11 -10 5 0 7 5 4 10 -3 6 -8 10 -11 10 -2 0
-4 -4 -4 -10z"/>
<path d="M2490 2090 c-8 -5 -11 -12 -7 -16 4 -4 13 -2 19 4 15 15 7 24 -12 12z"/>
<path d="M2743 2066 c6 -14 3 -16 -13 -11 -31 10 -24 -13 10 -30 36 -19 44
-19 37 -1 -3 8 1 16 9 18 10 2 4 9 -17 22 -29 17 -32 17 -26 2z"/>
<path d="M3222 2050 c0 -14 2 -19 5 -12 2 6 2 18 0 25 -3 6 -5 1 -5 -13z"/>
<path d="M2250 1969 c0 -5 5 -7 10 -4 6 3 10 8 10 11 0 2 -4 4 -10 4 -5 0 -10
-5 -10 -11z"/>
<path d="M3800 1941 c0 -6 4 -13 10 -16 6 -3 7 1 4 9 -7 18 -14 21 -14 7z"/>
<path d="M3240 1917 c0 -14 5 -29 10 -32 7 -4 8 3 4 22 -9 38 -14 42 -14 10z"/>
<path d="M150 1913 c0 -13 5 -23 11 -23 7 0 9 -10 4 -27 -4 -16 -5 -26 -3 -23
2 3 9 12 15 20 10 13 8 22 -7 45 -19 28 -20 28 -20 8z"/>
<path d="M3250 1859 c0 -5 5 -7 10 -4 6 3 10 8 10 11 0 2 -4 4 -10 4 -5 0 -10
-5 -10 -11z"/>
<path d="M3716 1854 c-5 -14 -4 -15 9 -4 17 14 19 20 6 20 -5 0 -12 -7 -15
-16z"/>
<path d="M190 1844 c0 -8 5 -12 10 -9 6 4 8 11 5 16 -9 14 -15 11 -15 -7z"/>
<path d="M4445 1820 c3 -5 8 -10 11 -10 2 0 4 5 4 10 0 6 -5 10 -11 10 -5 0
-7 -4 -4 -10z"/>
<path d="M4480 1816 c0 -3 15 -15 33 -27 23 -17 28 -18 18 -6 -14 18 -51 42
-51 33z"/>
<path d="M4190 1797 c-23 -7 -29 -12 -18 -14 9 -2 29 3 45 11 32 18 23 19 -27
3z"/>
<path d="M4480 1783 c0 -6 -10 -13 -22 -16 -13 -2 -3 -4 22 -4 25 0 38 2 30 5
-8 3 -18 10 -22 16 -6 8 -8 8 -8 -1z"/>
<path d="M1394 1742 c9 -15 48 -23 43 -9 -2 7 -14 14 -26 15 -13 2 -21 -1 -17
-6z"/>
<path d="M1560 1726 c0 -8 -8 -17 -17 -19 -12 -3 -8 -5 9 -6 15 0 29 -5 33
-10 3 -5 35 -13 71 -17 56 -6 68 -4 76 10 6 11 17 14 34 10 14 -4 24 -2 24 5
0 6 -15 11 -34 11 -18 0 -46 4 -62 9 -16 5 -53 12 -81 16 -43 4 -53 3 -53 -9z
m109 -22 c4 -4 -81 1 -99 5 -3 1 1 5 9 10 12 8 78 -3 90 -15z"/>
<path d="M3945 1730 c-3 -5 -2 -10 4 -10 5 0 13 5 16 10 3 6 2 10 -4 10 -5 0
-13 -4 -16 -10z"/>
<path d="M1897 1701 c-4 -17 -3 -21 5 -13 5 5 8 16 6 23 -3 8 -7 3 -11 -10z"/>
<path d="M2353 1706 c0 -8 8 -11 20 -8 14 4 16 7 5 13 -19 12 -25 11 -25 -5z"/>
<path d="M1750 1670 c-13 -8 -12 -10 3 -10 9 0 17 5 17 10 0 12 -1 12 -20 0z"/>
<path d="M1386 1635 c-3 -8 -1 -15 4 -15 6 0 10 7 10 15 0 8 -2 15 -4 15 -2 0
-6 -7 -10 -15z"/>
<path d="M4561 1634 c0 -11 3 -14 6 -6 3 7 2 16 -1 19 -3 4 -6 -2 -5 -13z"/>
<path d="M1960 1620 c0 -5 9 -14 20 -20 19 -10 20 -10 8 9 -13 22 -28 28 -28
11z"/>
<path d="M1 1398 c-1 -127 3 -228 8 -228 5 0 9 6 8 13 -2 51 5 97 12 92 6 -3
14 2 19 12 11 21 10 248 0 259 -4 4 -5 -16 -1 -44 4 -38 2 -55 -10 -66 -13
-14 -15 -12 -10 22 2 20 -2 66 -10 102 -15 64 -15 61 -16 -162z"/>
<path d="M1371 1603 c-1 -6 -4 -20 -7 -30 -5 -17 -5 -17 6 0 6 10 9 23 6 30
-3 9 -5 9 -5 0z"/>
<path d="M2685 1600 c3 -5 8 -10 11 -10 2 0 4 5 4 10 0 6 -5 10 -11 10 -5 0
-7 -4 -4 -10z"/>
<path d="M2005 1579 c-4 -6 -5 -12 -2 -15 2 -3 7 2 10 11 7 17 1 20 -8 4z"/>
<path d="M2747 1549 c7 -7 15 -10 18 -7 3 3 -2 9 -12 12 -14 6 -15 5 -6 -5z"/>
<path d="M3285 1540 c-4 -6 -11 -8 -16 -5 -5 4 -9 -2 -9 -11 0 -16 1 -16 20 1
11 10 20 20 20 22 0 7 -9 3 -15 -7z"/>
<path d="M2667 1475 c-20 -14 -37 -28 -37 -31 0 -7 59 29 72 44 16 18 7 15
-35 -13z"/>
<path d="M2018 1404 c-27 -33 -38 -57 -38 -80 0 -18 -3 -39 -6 -48 -3 -9 -1
-16 5 -16 6 0 18 26 27 57 9 32 28 75 41 95 32 53 16 47 -29 -8z"/>
<path d="M6268 1443 c7 -3 16 -2 19 1 4 3 -2 6 -13 5 -11 0 -14 -3 -6 -6z"/>
<path d="M1300 1404 c0 -8 5 -12 10 -9 6 3 10 10 10 16 0 5 -4 9 -10 9 -5 0
-10 -7 -10 -16z"/>
<path d="M2542 1390 c0 -14 2 -19 5 -12 2 6 2 18 0 25 -3 6 -5 1 -5 -13z"/>
<path d="M72 1340 l1 -65 7 50 c4 28 3 57 -1 65 -5 9 -8 -11 -7 -50z"/>
<path d="M4258 1383 c-19 -5 -25 -23 -8 -23 6 0 10 -4 10 -10 0 -5 -9 -10 -20
-10 -15 0 -22 -9 -27 -30 -4 -21 -11 -30 -22 -28 -9 2 -34 -16 -55 -40 l-38
-42 35 0 c27 0 43 8 72 37 l37 37 -4 -46 c-3 -40 -8 -51 -42 -77 -21 -17 -34
-31 -27 -31 6 0 10 -6 8 -12 -3 -18 45 -11 56 7 4 8 32 22 62 31 45 15 55 22
55 40 0 13 -4 26 -10 29 -5 3 -10 -3 -10 -14 0 -14 -6 -21 -20 -21 -11 0 -20
5 -20 10 0 6 7 10 15 10 17 0 18 5 19 77 1 28 -2 49 -6 47 -4 -2 -12 12 -19
31 -7 19 -15 34 -19 34 -3 -1 -13 -3 -22 -6z"/>
<path d="M3328 1363 c7 -3 16 -2 19 1 4 3 -2 6 -13 5 -11 0 -14 -3 -6 -6z"/>
<path d="M2532 1340 c0 -14 2 -19 5 -12 2 6 2 18 0 25 -3 6 -5 1 -5 -13z"/>
<path d="M6340 1339 c0 -5 5 -7 10 -4 6 3 10 8 10 11 0 2 -4 4 -10 4 -5 0 -10
-5 -10 -11z"/>
<path d="M4829 1334 c-1 -5 0 -17 1 -28 1 -10 -2 -16 -7 -13 -5 3 -15 2 -22
-3 -11 -6 -9 -10 8 -19 11 -7 21 -18 21 -25 0 -21 -48 -48 -73 -41 -17 4 -16
2 6 -10 15 -9 27 -23 27 -31 0 -8 4 -13 9 -9 5 3 16 -4 25 -16 l15 -22 25 29
c54 61 59 64 103 64 27 0 42 -4 38 -10 -10 -16 34 -11 61 7 21 14 29 14 46 4
18 -11 19 -10 13 10 -4 12 -7 40 -7 61 1 38 0 39 -31 33 -29 -6 -181 8 -234
22 -13 3 -24 1 -24 -3z"/>
<path d="M1905 1278 c-23 -37 -37 -68 -39 -83 -2 -14 -29 -69 -37 -75 -3 -3
-10 -16 -14 -29 l-7 -24 26 19 c14 11 26 22 26 26 0 5 16 26 35 47 39 43 58
92 49 128 -8 31 -16 29 -39 -9z"/>
<path d="M71 1244 c0 -11 3 -14 6 -6 3 7 2 16 -1 19 -3 4 -6 -2 -5 -13z"/>
<path d="M1298 1216 c-24 -18 -175 -296 -189 -349 -17 -63 -31 -90 -59 -112
-48 -38 -153 -151 -186 -200 -19 -30 -36 -70 -40 -100 -11 -66 -6 -53 -65
-191 -21 -50 -39 -98 -39 -107 0 -17 57 -34 70 -21 18 21 83 211 95 279 13 79
10 74 175 267 31 35 40 55 40 82 0 23 8 45 21 59 50 54 219 356 219 392 0 18
-19 19 -42 1z"/>
<path d="M4180 1184 c0 -8 5 -12 10 -9 6 3 10 10 10 16 0 5 -4 9 -10 9 -5 0
-10 -7 -10 -16z"/>
<path d="M1970 1160 c0 -27 -2 -30 -14 -21 -20 17 -26 3 -33 -87 -4 -61 -2
-92 12 -135 17 -55 17 -58 -4 -142 -20 -78 -21 -87 -6 -101 9 -9 13 -24 10
-33 -14 -37 35 27 69 91 45 85 46 105 6 268 -6 25 -15 76 -20 114 -11 76 -20
98 -20 46z m47 -322 c-3 -8 -6 -5 -6 6 -1 11 2 17 5 13 3 -3 4 -12 1 -19z"/>
<path d="M3480 1171 c0 -5 6 -12 13 -14 6 -3 -3 -6 -20 -6 -18 -1 -33 4 -33 9
0 15 -15 12 -39 -9 -13 -11 -20 -25 -16 -31 4 -6 1 -18 -6 -26 -20 -24 5 -43
33 -25 16 10 23 10 26 2 2 -6 14 -11 27 -11 24 0 38 -23 39 -64 1 -13 10 -20
28 -22 32 -3 52 17 43 46 -3 11 -2 20 4 20 5 0 2 18 -7 40 -11 25 -24 40 -34
40 -17 0 -23 16 -19 48 1 6 -7 12 -19 12 -11 0 -20 -4 -20 -9z"/>
<path d="M2376 1126 c-9 -19 -30 -45 -47 -57 -41 -29 -30 -35 19 -9 32 17 41
27 45 57 8 49 3 51 -17 9z"/>
<path d="M4046 1143 c-12 -12 -5 -23 14 -23 11 0 20 4 20 9 0 11 -26 22 -34
14z"/>
<path d="M0 838 c0 -160 3 -288 6 -285 9 9 11 577 2 577 -5 0 -8 -131 -8 -292z"/>
<path d="M4976 1029 c12 -13 20 -16 22 -9 3 7 -2 16 -9 21 -25 16 -32 9 -13
-12z"/>
<path d="M1539 1014 c-5 -15 -8 -29 -5 -31 2 -2 8 10 14 26 13 38 5 41 -9 5z"/>
<path d="M2330 998 c0 -6 -3 -8 -7 -5 -10 10 -33 -13 -33 -34 0 -22 -56 -197
-68 -213 -34 -43 -96 -253 -93 -311 1 -23 -5 -61 -14 -85 -18 -52 -108 -214
-139 -249 -15 -18 -8 -15 23 10 77 59 109 98 142 169 18 38 36 67 40 64 5 -3
11 -27 15 -54 4 -27 13 -58 21 -67 13 -17 14 -16 8 7 -49 204 -31 353 75 605
12 28 29 78 50 148 7 21 5 27 -6 27 -8 0 -14 -5 -14 -12z m-154 -575 c-2 -3
-9 -2 -14 1 -6 4 -6 22 2 48 l11 43 3 -44 c2 -23 1 -45 -2 -48z"/>
<path d="M1510 960 c-9 -6 -10 -10 -3 -10 6 0 15 5 18 10 8 12 4 12 -15 0z"/>
<path d="M3956 945 c-21 -32 -21 -85 -1 -85 9 0 18 8 22 18 3 9 15 29 25 44
11 16 16 32 13 38 -11 18 -42 10 -59 -15z"/>
<path d="M1464 944 c3 -9 6 -30 7 -47 0 -30 1 -31 10 -9 10 27 2 72 -13 72 -6
0 -7 -7 -4 -16z"/>
<path d="M4913 948 c-6 -7 -13 -21 -16 -31 -4 -10 -11 -16 -16 -13 -5 4 -21
-9 -35 -26 -14 -18 -32 -41 -40 -50 -9 -10 -27 -35 -41 -58 -14 -22 -30 -40
-35 -40 -6 0 -10 -4 -10 -10 0 -5 6 -7 14 -4 8 3 17 1 20 -4 3 -5 0 -10 -7 -9
-33 1 -47 -4 -47 -18 0 -9 -7 -18 -15 -21 -8 -4 -15 -15 -15 -25 0 -11 -7 -22
-15 -25 -8 -4 -15 -12 -15 -20 0 -8 -4 -14 -10 -14 -5 0 -10 -6 -10 -12 0 -7
-14 -24 -30 -38 -25 -20 -31 -34 -33 -68 -1 -38 -3 -40 -17 -27 -13 14 -13 17
0 25 8 5 11 13 6 17 -5 4 -11 2 -13 -4 -3 -7 -9 -13 -15 -13 -11 0 -37 -29
-38 -43 0 -4 11 -12 25 -17 28 -11 33 -35 9 -44 -8 -3 -12 -11 -8 -17 9 -14
64 46 64 70 0 9 15 32 33 51 17 20 47 61 66 92 32 52 105 132 199 218 26 24
37 41 34 54 -3 11 2 24 13 32 10 8 20 22 21 31 2 10 6 30 10 46 5 20 3 27 -9
27 -8 0 -19 -6 -24 -12z m-313 -457 c0 -6 -4 -13 -10 -16 -5 -3 -10 1 -10 9 0
9 5 16 10 16 6 0 10 -4 10 -9z"/>
<path d="M2710 910 c0 -5 5 -10 10 -10 6 0 10 5 10 10 0 6 -4 10 -10 10 -5 0
-10 -4 -10 -10z"/>
<path d="M4570 906 c0 -9 -4 -16 -10 -16 -5 0 -10 -4 -10 -10 0 -13 27 -1 34
15 3 8 1 17 -4 20 -6 4 -10 -1 -10 -9z"/>
<path d="M5690 914 c0 -19 40 -104 50 -104 4 0 6 -9 3 -20 -3 -12 0 -20 6 -20
7 0 9 5 5 11 -3 6 0 15 7 20 9 5 10 9 2 9 -6 0 -9 8 -6 19 6 23 -26 83 -40 74
-5 -3 -13 1 -18 8 -5 8 -9 9 -9 3z"/>
<path d="M3634 895 c-16 -12 -17 -14 -3 -15 9 0 19 7 23 15 7 19 5 19 -20 0z"/>
<path d="M3680 895 c0 -8 4 -15 10 -15 5 0 7 7 4 15 -4 8 -8 15 -10 15 -2 0
-4 -7 -4 -15z"/>
<path d="M5364 882 c3 -5 -1 -15 -9 -22 -20 -17 -19 -36 2 -44 11 -4 22 -1 29
8 6 9 16 16 23 16 22 0 11 20 -20 36 -17 8 -29 11 -25 6z"/>
<path d="M2720 869 c0 -5 5 -7 10 -4 6 3 10 8 10 11 0 2 -4 4 -10 4 -5 0 -10
-5 -10 -11z"/>
<path d="M4510 873 c0 -5 9 -14 20 -21 11 -7 20 -8 20 -2 0 5 -9 14 -20 20
-11 6 -20 7 -20 3z"/>
<path d="M4483 840 c0 -24 2 -26 14 -14 12 12 12 16 0 28 -12 12 -14 10 -14
-14z"/>
<path d="M2704 823 c0 -26 4 -39 10 -33 6 6 5 22 -1 42 l-10 33 1 -42z"/>
<path d="M118 823 c6 -2 18 -2 25 0 6 3 1 5 -13 5 -14 0 -19 -2 -12 -5z"/>
<path d="M4509 813 c-13 -15 -12 -15 9 -4 23 12 28 21 13 21 -5 0 -15 -7 -22
-17z"/>
<path d="M2686 804 c-4 -9 -4 -33 0 -53 4 -27 3 -32 -5 -21 -8 11 -9 6 -5 -20
10 -51 27 -74 20 -27 -4 28 -1 37 10 37 8 0 14 5 14 11 0 5 -4 8 -9 5 -11 -7
-23 48 -15 69 4 8 4 15 1 15 -3 0 -8 -7 -11 -16z"/>
<path d="M4256 794 c-76 -26 -174 -32 -239 -13 -45 12 -97 3 -97 -16 0 -8 -15
-17 -32 -20 -18 -3 -40 -7 -48 -9 -8 -2 -23 -7 -34 -11 -11 -5 -21 -3 -26 5
-6 10 -13 8 -30 -8 -19 -17 -22 -28 -17 -61 2 -21 1 -43 -3 -48 -4 -4 -4 -19
1 -32 7 -17 14 -21 27 -16 35 15 62 17 62 6 0 -7 5 -9 10 -6 6 3 10 1 10 -4 0
-6 7 -11 15 -11 8 0 15 -6 15 -14 0 -18 38 -46 63 -46 14 0 201 132 227 160 3
3 34 26 70 52 132 93 143 132 26 92z"/>
<path d="M4391 806 c-2 -17 23 -76 31 -76 4 0 8 -8 9 -17 0 -11 2 -13 6 -5 3
7 -2 24 -11 37 -22 33 -21 34 18 31 24 -2 33 1 29 10 -3 7 -18 11 -38 10 -19
-2 -36 2 -39 8 -2 6 -5 7 -5 2z"/>
<path d="M4357 775 c6 -30 33 -56 33 -31 0 9 -4 16 -10 16 -5 0 -10 9 -10 20
0 11 -4 20 -9 20 -4 0 -6 -11 -4 -25z"/>
<path d="M5826 785 c-22 -17 -17 -29 7 -19 16 6 32 34 19 34 -4 0 -16 -7 -26
-15z"/>
<path d="M4920 702 c0 -32 -5 -54 -14 -59 -9 -5 -11 -15 -5 -28 7 -19 8 -19 8
3 1 12 5 22 10 22 14 0 24 91 12 103 -8 8 -11 -4 -11 -41z"/>
<path d="M5761 723 c0 -13 -7 -23 -14 -23 -20 0 -36 -39 -36 -85 0 -22 -3
-100 -7 -174 -7 -153 -2 -159 58 -70 34 51 37 61 47 171 11 113 7 198 -9 198
-4 0 -11 -12 -16 -27 l-7 -28 -7 30 c-6 24 -8 25 -9 8z"/>
<path d="M4521 695 c-25 -26 -43 -27 -22 -1 11 13 8 13 -18 3 -16 -6 -27 -15
-25 -19 3 -5 10 -6 15 -3 5 4 9 1 9 -5 0 -7 -6 -10 -13 -7 -8 3 -20 1 -28 -4
-11 -7 -9 -9 8 -9 l21 0 -19 -40 c-23 -47 -23 -50 -4 -50 8 0 15 -8 15 -19 0
-27 38 -34 63 -10 11 10 27 19 34 19 8 0 21 16 29 35 8 20 22 39 30 42 12 4 8
9 -15 19 -17 7 -31 18 -31 24 0 5 -6 10 -14 10 -9 0 -12 7 -9 20 7 26 3 25
-26 -5z m19 -35 c0 -5 -7 -10 -16 -10 -8 0 -12 5 -9 10 3 6 10 10 16 10 5 0 9
-4 9 -10z m41 -28 c-7 -2 -18 1 -23 6 -8 8 -4 9 13 5 13 -4 18 -8 10 -11z"/>
<path d="M5120 714 c0 -6 -28 -39 -62 -73 -43 -42 -64 -57 -69 -49 -5 8 -8 5
-6 -9 1 -13 13 -27 34 -37 28 -13 31 -13 26 -1 -4 11 -1 13 11 9 11 -4 16 -1
16 10 0 24 19 19 24 -6 3 -13 7 -61 9 -108 4 -80 3 -86 -20 -107 -13 -13 -28
-23 -34 -23 -5 0 -9 -4 -9 -9 0 -6 -13 -24 -28 -41 -16 -17 -45 -61 -65 -98
-19 -37 -47 -89 -61 -116 -14 -27 -26 -51 -26 -53 0 -11 278 5 310 18 42 17
130 71 130 80 0 9 -48 26 -94 34 -21 3 -46 10 -55 15 -9 5 -24 11 -34 14 -10
3 -16 10 -12 15 3 5 1 12 -5 16 -5 3 -10 15 -10 25 0 25 50 130 61 130 5 0 9
7 9 15 0 9 11 20 24 25 39 14 47 40 35 107 -6 32 -14 63 -19 68 -4 6 -11 34
-15 63 -5 36 -13 55 -24 60 -9 3 -21 13 -28 21 -7 9 -13 11 -13 5z m-70 -124
c0 -11 -2 -20 -4 -20 -2 0 -6 9 -9 20 -3 11 -1 20 4 20 5 0 9 -9 9 -20z m73
-460 c3 -11 1 -23 -4 -26 -5 -3 -9 6 -9 20 0 31 6 34 13 6z"/>
<path d="M2712 680 c0 -19 2 -27 5 -17 2 9 2 25 0 35 -3 9 -5 1 -5 -18z"/>
<path d="M5502 695 c-13 -7 -35 -22 -49 -34 -32 -29 -25 -63 23 -108 21 -21
38 -49 45 -77 6 -25 17 -51 25 -57 25 -21 19 -68 -37 -299 -10 -41 -21 -85
-25 -98 -6 -21 -3 -22 39 -22 l46 0 6 58 c4 31 15 100 26 152 10 52 23 152 30
222 11 126 10 128 -14 182 -27 58 -59 97 -79 95 -7 -1 -23 -7 -36 -14z"/>
<path d="M5025 650 c-3 -5 -1 -10 4 -10 6 0 11 5 11 10 0 6 -2 10 -4 10 -3 0
-8 -4 -11 -10z"/>
<path d="M2637 613 c-2 -5 0 -21 4 -38 7 -29 7 -29 8 8 1 35 -3 46 -12 30z"/>
<path d="M4872 551 c0 -35 -3 -66 -6 -69 -4 -3 -6 13 -6 36 0 23 -4 42 -10 42
-5 0 -10 -22 -10 -50 0 -27 -6 -61 -12 -76 -10 -22 -10 -28 0 -32 6 -2 12 -15
12 -28 0 -30 17 -32 22 -1 2 12 9 21 15 20 7 -2 14 6 18 16 8 28 55 68 63 54
5 -8 11 -7 20 3 8 9 9 14 2 14 -6 0 -11 10 -10 23 3 38 1 41 -19 23 -24 -22
-37 -15 -46 24 -4 17 -10 30 -15 30 -5 0 -10 8 -13 18 -2 9 -4 -12 -5 -47z
m53 -82 c-4 -6 -13 -8 -21 -5 -8 3 -14 0 -14 -6 0 -6 -3 -9 -6 -5 -10 10 6 27
27 27 12 0 17 -4 14 -11z"/>
<path d="M2748 583 c-32 -5 -34 -9 -13 -30 8 -8 13 -19 10 -24 -9 -14 15 -11
30 4 7 8 27 12 49 9 33 -4 35 -5 19 -18 -16 -13 -15 -14 17 -13 19 0 46 -3 59
-7 17 -5 22 -4 17 4 -4 7 -13 12 -20 12 -8 0 -19 7 -26 15 -7 8 -29 15 -49 15
-44 0 -71 14 -47 23 9 4 16 2 16 -3 0 -6 10 -10 22 -10 31 0 10 19 -27 24 -17
2 -42 2 -57 -1z"/>
<path d="M2622 540 c0 -19 2 -27 5 -17 2 9 2 25 0 35 -3 9 -5 1 -5 -18z"/>
<path d="M1852 505 c-16 -25 -31 -43 -34 -40 -3 3 -11 -3 -19 -12 -13 -16 -12
-17 4 -4 26 20 21 4 -14 -44 -18 -24 -37 -41 -44 -39 -7 3 -16 1 -20 -5 -4 -7
0 -8 11 -4 14 5 12 0 -6 -25 -13 -17 -28 -28 -33 -25 -6 3 -7 1 -4 -4 9 -14
-53 -84 -66 -76 -6 3 -7 1 -3 -5 4 -6 -14 -32 -39 -58 -25 -26 -45 -43 -45
-36 0 6 5 14 10 17 6 3 10 11 10 18 0 6 -7 2 -15 -10 -9 -12 -14 -26 -13 -30
4 -15 -23 -54 -33 -48 -5 4 -8 1 -7 -7 2 -7 -2 -12 -9 -11 -8 2 -10 -4 -6 -15
6 -15 5 -16 -13 -2 -15 11 -16 11 -6 0 6 -8 12 -18 12 -23 0 -4 -6 -5 -12 -1
-10 5 -9 3 0 -7 11 -12 14 -12 22 1 15 27 63 84 147 176 101 109 192 230 233
307 37 68 32 76 -8 12z"/>
<path d="M3751 534 c0 -11 3 -14 6 -6 3 7 2 16 -1 19 -3 4 -6 -2 -5 -13z"/>
<path d="M4120 530 c-8 -5 -10 -10 -5 -10 6 0 17 5 25 10 8 5 11 10 5 10 -5 0
-17 -5 -25 -10z"/>
<path d="M4995 509 c-11 -17 1 -21 15 -4 8 9 8 15 2 15 -6 0 -14 -5 -17 -11z"/>
<path d="M2937 483 c-2 -5 -1 -19 4 -33 6 -22 7 -22 8 -4 1 28 11 36 28 23 8
-7 13 -8 13 -1 0 17 -45 29 -53 15z"/>
<path d="M4400 411 c0 -5 -9 -12 -20 -16 -11 -3 -38 -23 -60 -44 -33 -30 -40
-44 -40 -74 0 -30 -4 -37 -20 -37 -11 0 -20 -7 -20 -15 0 -17 16 -20 25 -5 7
11 25 4 25 -10 0 -15 -60 -41 -80 -35 -10 3 -21 1 -25 -5 -3 -5 -15 -10 -26
-10 -10 0 -19 -4 -19 -8 0 -5 -16 -17 -36 -28 -24 -13 -37 -28 -41 -47 -3 -16
-16 -33 -28 -39 -19 -8 -27 -6 -45 12 -22 22 -46 23 -44 2 1 -7 2 -21 3 -32 1
-18 8 -20 84 -20 75 0 86 2 106 24 12 13 60 41 106 61 57 26 87 45 91 59 4 12
25 39 48 61 23 22 56 58 74 80 18 22 30 31 26 20 -7 -18 -6 -19 10 -6 15 13
16 15 2 23 -19 11 -21 35 -3 41 9 3 9 9 1 23 -16 27 -31 28 -51 4 -10 -12 -24
-28 -31 -36 -7 -8 -11 -18 -8 -23 7 -10 -60 -25 -74 -16 -12 7 6 28 33 38 9 3
17 13 17 22 0 8 7 15 15 15 8 0 15 7 15 15 0 8 -2 15 -5 15 -3 0 -5 -4 -5 -9z
m73 -31 c-3 -11 -9 -20 -14 -20 -14 0 -11 28 4 33 6 3 13 6 14 6 0 1 -1 -8 -4
-19z m-363 -356 c0 -8 -4 -12 -10 -9 -5 3 -10 10 -10 16 0 5 5 9 10 9 6 0 10
-7 10 -16z"/>
<path d="M4784 407 c3 -10 6 -27 6 -38 0 -17 3 -18 20 -9 25 13 26 29 3 37
-10 4 -22 11 -26 17 -5 7 -6 4 -3 -7z"/>
<path d="M1690 382 c6 -13 14 -21 18 -18 3 4 -2 14 -12 24 -18 16 -18 16 -6
-6z"/>
<path d="M1726 392 c-2 -4 4 -8 14 -8 10 0 16 4 14 8 -3 4 -9 8 -14 8 -5 0
-11 -4 -14 -8z"/>
<path d="M3 195 l0 -200 9 143 c5 86 5 166 0 200 -8 44 -10 12 -9 -143z"/>
<path d="M2830 370 c0 -5 5 -10 11 -10 5 0 7 5 4 10 -3 6 -8 10 -11 10 -2 0
-4 -4 -4 -10z"/>
<path d="M4778 321 c-4 -14 -5 -28 -2 -33 7 -11 34 10 34 26 0 6 -4 5 -9 -3
-7 -11 -10 -9 -13 10 l-3 24 -7 -24z"/>
<path d="M4740 290 c0 -11 -4 -20 -8 -20 -5 0 -15 -19 -22 -42 -8 -24 -17 -47
-20 -53 -4 -5 -10 -23 -14 -40 -7 -29 -7 -29 8 -10 8 11 16 29 16 40 1 11 4
14 7 8 3 -8 13 -2 29 17 14 16 23 34 19 40 -3 5 0 10 8 10 8 0 20 6 26 14 10
12 8 15 -11 18 -15 2 -22 9 -20 21 2 9 -2 17 -8 17 -5 0 -10 -9 -10 -20z m-19
-91 c-5 -13 -10 -19 -10 -12 -1 15 10 45 15 40 3 -2 0 -15 -5 -28z"/>
<path d="M3860 258 c0 -21 5 -38 10 -38 6 0 10 -12 10 -27 1 -26 38 -109 40
-88 0 6 7 1 15 -9 25 -32 24 -15 -3 67 -17 55 -29 77 -38 73 -9 -3 -14 1 -14
12 0 9 -5 24 -10 32 -7 11 -10 5 -10 -22z"/>
<path d="M38 274 c-4 -5 -7 -70 -7 -142 l-1 -132 56 0 55 0 -7 48 c-3 26 -10
51 -15 56 -5 6 -9 20 -9 33 0 14 -6 23 -15 23 -13 0 -15 9 -10 53 5 38 4 48
-4 37 -6 -8 -11 -25 -11 -37 0 -44 -19 -23 -22 25 -2 26 -6 42 -10 36z m72
-184 c0 -5 -4 -10 -10 -10 -5 0 -10 5 -10 10 0 6 5 10 10 10 6 0 10 -4 10 -10z"/>
<path d="M1055 270 c-3 -5 -1 -10 4 -10 6 0 11 5 11 10 0 6 -2 10 -4 10 -3 0
-8 -4 -11 -10z"/>
<path d="M3596 265 c-3 -8 -3 -22 1 -30 3 -10 1 -15 -8 -13 -17 4 -24 -33 -8
-43 7 -4 10 -11 6 -16 -5 -4 -12 -1 -17 7 -7 11 -12 12 -20 4 -9 -9 -8 -14 2
-20 19 -12 78 -15 78 -3 0 5 -7 9 -15 9 -18 0 -19 23 -2 50 10 17 9 22 -2 29
-9 6 -10 11 -2 15 6 4 11 11 11 17 0 15 -17 10 -24 -6z"/>
<path d="M1016 214 c-15 -14 -22 -34 -12 -34 2 0 11 11 20 25 19 28 15 33 -8
9z"/>
<path d="M965 144 c-24 -37 -13 -40 14 -4 12 17 17 30 12 30 -5 0 -16 -12 -26
-26z"/>
<path d="M2164 84 c-4 -10 -16 -30 -26 -43 -23 -30 -23 -41 1 -41 13 0 22 12
31 45 13 45 7 76 -6 39z"/>
<path d="M3590 67 c-1 -22 -1 -22 -17 -2 -15 19 -15 18 -9 -14 3 -18 6 -37 6
-42 0 -16 18 -9 23 9 4 16 5 16 6 0 1 -12 9 -18 26 -18 27 0 34 15 10 24 -8 3
-15 16 -15 30 0 13 -7 26 -15 30 -11 4 -15 -1 -15 -17z"/>
<path d="M3045 60 c-3 -5 1 -10 10 -10 9 0 13 5 10 10 -3 6 -8 10 -10 10 -2 0
-7 -4 -10 -10z"/>
<path d="M936 37 c-5 -15 -6 -31 -2 -34 11 -11 18 5 14 34 l-4 28 -8 -28z"/>
<path d="M806 35 c-9 -26 -7 -32 5 -12 6 10 9 21 6 23 -2 3 -7 -2 -11 -11z"/>
<path d="M1516 13 c-6 -14 -5 -15 5 -6 7 7 10 15 7 18 -3 3 -9 -2 -12 -12z"/>
</g>
</svg>
